<mxfile host="app.diagrams.net" agent="Mozilla/5.0 (Macintosh; Intel Mac OS X 10_15_7) AppleWebKit/537.36 (KHTML, like Gecko) Chrome/128.0.0.0 Safari/537.36" version="24.7.10">
  <diagram name="第 1 页" id="gBcdoSO4XW2pjzrJ0r_s">
    <mxGraphModel dx="2261" dy="761" grid="1" gridSize="10" guides="1" tooltips="1" connect="1" arrows="1" fold="1" page="1" pageScale="1" pageWidth="827" pageHeight="1169" math="0" shadow="0">
      <root>
        <mxCell id="0" />
        <mxCell id="1" parent="0" />
        <mxCell id="WeLG5edQ8tTJFwp3-dpX-95" value="" style="rounded=0;whiteSpace=wrap;html=1;" parent="1" vertex="1">
          <mxGeometry x="180" y="376.13" width="490" height="129.5" as="geometry" />
        </mxCell>
        <mxCell id="WeLG5edQ8tTJFwp3-dpX-3" value="" style="rounded=0;whiteSpace=wrap;html=1;" parent="1" vertex="1">
          <mxGeometry x="180" y="200" width="490" height="120" as="geometry" />
        </mxCell>
        <mxCell id="WeLG5edQ8tTJFwp3-dpX-2" value="" style="shape=image;verticalLabelPosition=bottom;labelBackgroundColor=default;verticalAlign=top;aspect=fixed;imageAspect=0;image=https://www.logosc.cn/uploads/icon/2019/04/28//f4d1fd51-0ae8-4159-934c-7830f535f931.png;shadow=0;imageBackground=default;" parent="1" vertex="1">
          <mxGeometry x="232.66" y="200" width="22.67" height="20" as="geometry" />
        </mxCell>
        <mxCell id="WeLG5edQ8tTJFwp3-dpX-12" value="" style="group" parent="1" vertex="1" connectable="0">
          <mxGeometry x="204" y="220" width="80" height="80" as="geometry" />
        </mxCell>
        <mxCell id="WeLG5edQ8tTJFwp3-dpX-8" value="Chat Configuration Generator" style="text;whiteSpace=wrap;html=1;align=center;" parent="WeLG5edQ8tTJFwp3-dpX-12" vertex="1">
          <mxGeometry x="2.6666666666666665" y="52" width="80" height="24" as="geometry" />
        </mxCell>
        <mxCell id="WeLG5edQ8tTJFwp3-dpX-11" value="" style="group;fillColor=#F9F7ED;strokeColor=#36393d;" parent="WeLG5edQ8tTJFwp3-dpX-12" vertex="1" connectable="0">
          <mxGeometry x="4.444444444444445" width="71.11111111111111" height="56" as="geometry" />
        </mxCell>
        <mxCell id="WeLG5edQ8tTJFwp3-dpX-5" value="" style="whiteSpace=wrap;html=1;fillColor=#F9F7ED;strokeColor=#36393d;" parent="WeLG5edQ8tTJFwp3-dpX-11" vertex="1">
          <mxGeometry width="71.11111111111111" height="56" as="geometry" />
        </mxCell>
        <mxCell id="WeLG5edQ8tTJFwp3-dpX-6" value="" style="endArrow=none;dashed=1;html=1;rounded=0;fillColor=#eeeeee;strokeColor=#36393d;" parent="WeLG5edQ8tTJFwp3-dpX-11" edge="1">
          <mxGeometry width="50" height="50" relative="1" as="geometry">
            <mxPoint x="8.88888888888889" y="16" as="sourcePoint" />
            <mxPoint x="62.22222222222223" y="16" as="targetPoint" />
          </mxGeometry>
        </mxCell>
        <mxCell id="WeLG5edQ8tTJFwp3-dpX-7" value="" style="endArrow=none;dashed=1;html=1;rounded=0;fillColor=#eeeeee;strokeColor=#36393d;" parent="WeLG5edQ8tTJFwp3-dpX-11" edge="1">
          <mxGeometry width="50" height="50" relative="1" as="geometry">
            <mxPoint x="8.88888888888889" y="40" as="sourcePoint" />
            <mxPoint x="62.22222222222223" y="40" as="targetPoint" />
          </mxGeometry>
        </mxCell>
        <mxCell id="WeLG5edQ8tTJFwp3-dpX-10" value="" style="endArrow=none;dashed=1;html=1;rounded=0;fillColor=#eeeeee;strokeColor=#36393d;" parent="WeLG5edQ8tTJFwp3-dpX-11" edge="1">
          <mxGeometry width="50" height="50" relative="1" as="geometry">
            <mxPoint x="8.88888888888889" y="27.6" as="sourcePoint" />
            <mxPoint x="62.22222222222223" y="27.6" as="targetPoint" />
          </mxGeometry>
        </mxCell>
        <mxCell id="WeLG5edQ8tTJFwp3-dpX-18" value="" style="html=1;shadow=0;dashed=0;align=center;verticalAlign=middle;shape=mxgraph.arrows2.arrow;dy=0.63;dx=16;notch=0;fillColor=#dae8fc;strokeColor=#6c8ebf;" parent="1" vertex="1">
          <mxGeometry x="140" y="240" width="60" height="20" as="geometry" />
        </mxCell>
        <mxCell id="WeLG5edQ8tTJFwp3-dpX-22" value="Dialogue Prompt Generator" style="rounded=0;whiteSpace=wrap;html=1;fillColor=#eeeeee;strokeColor=#36393d;" parent="1" vertex="1">
          <mxGeometry x="339.25" y="180" width="183" height="20" as="geometry" />
        </mxCell>
        <mxCell id="WeLG5edQ8tTJFwp3-dpX-29" value="" style="group" parent="1" vertex="1" connectable="0">
          <mxGeometry x="541.75" y="228" width="100" height="40" as="geometry" />
        </mxCell>
        <mxCell id="WeLG5edQ8tTJFwp3-dpX-30" value="" style="rounded=0;whiteSpace=wrap;html=1;dashed=1;" parent="WeLG5edQ8tTJFwp3-dpX-29" vertex="1">
          <mxGeometry width="100" height="40" as="geometry" />
        </mxCell>
        <mxCell id="WeLG5edQ8tTJFwp3-dpX-31" value="" style="group" parent="WeLG5edQ8tTJFwp3-dpX-29" vertex="1" connectable="0">
          <mxGeometry x="10" y="10" width="80" height="25" as="geometry" />
        </mxCell>
        <mxCell id="WeLG5edQ8tTJFwp3-dpX-32" value="" style="shape=datastore;whiteSpace=wrap;html=1;strokeColor=#B9E0A5;" parent="WeLG5edQ8tTJFwp3-dpX-31" vertex="1">
          <mxGeometry width="20" height="25" as="geometry" />
        </mxCell>
        <mxCell id="WeLG5edQ8tTJFwp3-dpX-33" value="" style="shape=datastore;whiteSpace=wrap;html=1;strokeColor=#B9E0A5;" parent="WeLG5edQ8tTJFwp3-dpX-31" vertex="1">
          <mxGeometry x="30" width="20" height="25" as="geometry" />
        </mxCell>
        <mxCell id="WeLG5edQ8tTJFwp3-dpX-34" value="" style="shape=datastore;whiteSpace=wrap;html=1;strokeColor=#B9E0A5;" parent="WeLG5edQ8tTJFwp3-dpX-31" vertex="1">
          <mxGeometry x="60" width="20" height="25" as="geometry" />
        </mxCell>
        <mxCell id="WeLG5edQ8tTJFwp3-dpX-36" value="" style="html=1;shadow=0;dashed=0;align=center;verticalAlign=middle;shape=mxgraph.arrows2.arrow;dy=0.63;dx=16;notch=0;fillColor=#dae8fc;strokeColor=#6c8ebf;" parent="1" vertex="1">
          <mxGeometry x="473" y="241.37" width="50" height="20" as="geometry" />
        </mxCell>
        <mxCell id="WeLG5edQ8tTJFwp3-dpX-53" value="" style="endArrow=classic;html=1;rounded=0;" parent="1" edge="1">
          <mxGeometry relative="1" as="geometry">
            <mxPoint x="285" y="236.5" as="sourcePoint" />
            <mxPoint x="395" y="236.5" as="targetPoint" />
          </mxGeometry>
        </mxCell>
        <mxCell id="WeLG5edQ8tTJFwp3-dpX-54" value="&lt;span style=&quot;font-size: 12px; text-wrap: wrap; background-color: rgb(251, 251, 251);&quot;&gt;Configurations&lt;/span&gt;" style="edgeLabel;resizable=0;html=1;;align=center;verticalAlign=middle;" parent="WeLG5edQ8tTJFwp3-dpX-53" connectable="0" vertex="1">
          <mxGeometry relative="1" as="geometry">
            <mxPoint x="-5" as="offset" />
          </mxGeometry>
        </mxCell>
        <mxCell id="WeLG5edQ8tTJFwp3-dpX-58" value="" style="endArrow=classic;html=1;rounded=0;" parent="1" edge="1">
          <mxGeometry relative="1" as="geometry">
            <mxPoint x="390" y="255" as="sourcePoint" />
            <mxPoint x="285" y="255.25" as="targetPoint" />
          </mxGeometry>
        </mxCell>
        <mxCell id="WeLG5edQ8tTJFwp3-dpX-59" value="Response" style="edgeLabel;resizable=0;html=1;;align=center;verticalAlign=middle;" parent="WeLG5edQ8tTJFwp3-dpX-58" connectable="0" vertex="1">
          <mxGeometry relative="1" as="geometry" />
        </mxCell>
        <mxCell id="WeLG5edQ8tTJFwp3-dpX-61" value="" style="shape=image;verticalLabelPosition=bottom;labelBackgroundColor=default;verticalAlign=top;aspect=fixed;imageAspect=0;image=data:image/png,iVBORw0KGgoAAAANSUhEUgAAAPEAAADZCAIAAAB+VkEFAAAMPWlDQ1BJQ0MgUHJvZmlsZQAASImVVwdYU8kWnluSkEBoAQSkhN4EESkBpITQQu9NVEISIJQYA0HFji4quHaxgA1dFVGw0iwoYmdR7H2xoKCsiwW78iYFdN1Xvne+b+7988+Z/5w5d27mDgBqJzgiUS6qDkCesEAcE+RHT0pOoZN6AAJQQAFqwIDDzRcxo6LCALSh+9/t3Q3oDe2qvVTrn/3/1TR4/HwuAEgUxOm8fG4exIcAwCu5InEBAEQpbza1QCTFsAEtMUwQ4kVSnCnHlVKcLsf7ZD5xMSyI2wBQUuFwxJkAqF6GPL2Qmwk1VPshdhTyBEIA1OgQe+flTeZBnAaxNfQRQSzVZ6T/oJP5N830YU0OJ3MYy+ciMyV/Qb4olzP9/yzH/7a8XMlQDEvYVLLEwTHSOcO63cqZHCrFKhD3CdMjIiHWhPiDgCfzhxilZEmC4+X+qAE3nwVrBnQgduRx/EMhNoA4UJgbEabg0zMEgWyI4QpBpwkK2HEQ60K8iJ8fEKvw2SKeHKOIhdZniFlMBX+OI5bFlcZ6IMmJZyr0X2fx2Qp9TLUoKy4RYgrE5oWChAiIVSF2yM+JDVX4jCvKYkUM+YglMdL8zSGO4QuD/OT6WGGGODBG4V+alz80X2xLloAdocAHCrLiguX1wdq4HFn+cC7YZb6QGT+kw89PChuaC4/vHyCfO9bDF8bHKnQ+iAr8YuRjcYooN0rhj5vyc4OkvCnEzvmFsYqxeEIBXJByfTxDVBAVJ88TL8rmhETJ88GXgzDAAv6ADiSwpYPJIBsIOvoa+uAveU8g4AAxyAR8YK9ghkYkynqE8BoLisCfEPFB/vA4P1kvHxRC/uswK7/agwxZb6FsRA54CnEeCAW58LdENko4HC0BPIGM4B/RObBxYb65sEn7/z0/xH5nmJAJUzCSoYh0tSFPYgDRnxhMDCTa4Pq4N+6Jh8GrL2xOOAN3H5rHd3/CU0In4RHhOqGLcHuSoFj8U5bhoAvqBypqkf5jLXBLqOmC++FeUB0q4zq4PrDHnWEcJu4DI7tAlqXIW1oV+k/af5vBD09D4Ud2JKPkEWRfsvXPI1VtVV2GVaS1/rE+8lzTh+vNGu75OT7rh+rz4D30Z09sEXYQO4udxM5jR7EGQMdasEasHTsmxcOr64lsdQ1Fi5HlkwN1BP+IN/RkpZXMd6xx7HX8Iu8r4E+T/kcD1mTRdLEgM6uAzoQ7Ap/OFnIdRtGdHJ2cAZDuL/K/rzfRsn0D0Wn/zs3/AwCvlsHBwSPfuZAWAPa7wde/6TtnzYBbhzIA55q4EnGhnMOlF4Js19ICesAImAFrOB8n4Ao8gS8IACEgEsSBZDARZp8F17kYTAUzwTxQAsrAcrAGbACbwTawC+wFB0ADOApOgjPgIrgMroO7cPV0gxegH7wDnxEEISFUhIboIcaIBWKHOCEMxBsJQMKQGCQZSUMyESEiQWYi85EyZCWyAdmKVCP7kSbkJHIe6URuIw+RXuQ18gnFUBVUCzVELdHRKANloqFoHDoBzUSnoEXoAnQpug6tQveg9ehJ9CJ6He1CX6ADGMCUMR3MBLPHGBgLi8RSsAxMjM3GSrFyrAqrxZrhc76KdWF92EeciNNwOm4PV3AwHo9z8Sn4bHwJvgHfhdfjbfhV/CHej38jUAkGBDuCB4FNSCJkEqYSSgjlhB2Ew4TT8F3qJrwjEok6RCuiG3wXk4nZxBnEJcSNxDriCWIn8TFxgEQi6ZHsSF6kSBKHVEAqIa0n7SG1kK6QukkflJSVjJWclAKVUpSESsVK5Uq7lY4rXVF6pvSZrE62IHuQI8k88nTyMvJ2cjP5Ermb/JmiQbGieFHiKNmUeZR1lFrKaco9yhtlZWVTZXflaGWB8lzldcr7lM8pP1T+qKKpYqvCUklVkagsVdmpckLltsobKpVqSfWlplALqEup1dRT1AfUD6o0VQdVtipPdY5qhWq96hXVl2pkNQs1ptpEtSK1crWDapfU+tTJ6pbqLHWO+mz1CvUm9ZvqAxo0jTEakRp5Gks0dmuc1+jRJGlaagZo8jQXaG7TPKX5mIbRzGgsGpc2n7addprWrUXUstJia2VrlWnt1erQ6tfW1HbWTtCepl2hfUy7SwfTsdRh6+TqLNM5oHND59MIwxHMEfwRi0fUjrgy4r3uSF1fXb5uqW6d7nXdT3p0vQC9HL0Veg169/VxfVv9aP2p+pv0T+v3jdQa6TmSO7J05IGRdwxQA1uDGIMZBtsM2g0GDI0MgwxFhusNTxn2GekY+RplG602Om7Ua0wz9jYWGK82bjF+TtemM+m59HX0Nnq/iYFJsInEZKtJh8lnUyvTeNNi0zrT+2YUM4ZZhtlqs1azfnNj83DzmeY15ncsyBYMiyyLtRZnLd5bWlkmWi60bLDssdK1YlsVWdVY3bOmWvtYT7Gusr5mQ7Rh2OTYbLS5bIvauthm2VbYXrJD7VztBHYb7TpHEUa5jxKOqhp1017FnmlfaF9j/9BBxyHModihweHlaPPRKaNXjD47+puji2Ou43bHu2M0x4SMKR7TPOa1k60T16nC6dpY6tjAsXPGNo595WznzHfe5HzLheYS7rLQpdXlq6ubq9i11rXXzdwtza3S7SZDixHFWMI4505w93Of437U/aOHq0eBxwGPvzztPXM8d3v2jLMaxx+3fdxjL1MvjtdWry5vunea9xbvLh8TH45Plc8jXzNfnu8O32dMG2Y2cw/zpZ+jn9jvsN97lgdrFuuEP+Yf5F/q3xGgGRAfsCHgQaBpYGZgTWB/kEvQjKATwYTg0OAVwTfZhmwuu5rdH+IWMiukLVQlNDZ0Q+ijMNswcVhzOBoeEr4q/F6ERYQwoiESRLIjV0Xej7KKmhJ1JJoYHRVdEf00ZkzMzJizsbTYSbG7Y9/F+cUti7sbbx0viW9NUEtITahOeJ/on7gysStpdNKspIvJ+smC5MYUUkpCyo6UgfEB49eM7051SS1JvTHBasK0Cecn6k/MnXhsktokzqSDaYS0xLTdaV84kZwqzkA6O70yvZ/L4q7lvuD58lbzevle/JX8ZxleGSszejK9Mldl9mb5ZJVn9QlYgg2CV9nB2Zuz3+dE5uzMGcxNzK3LU8pLy2sSagpzhG2TjSZPm9wpshOViLqmeExZM6VfHCrekY/kT8hvLNCCH/LtEmvJL5KHhd6FFYUfpiZMPThNY5pwWvt02+mLpz8rCiz6bQY+gzujdabJzHkzH85izto6G5mdPrt1jtmcBXO65wbN3TWPMi9n3u/FjsUri9/OT5zfvMBwwdwFj38J+qWmRLVEXHJzoefCzYvwRYJFHYvHLl6/+Fspr/RCmWNZedmXJdwlF34d8+u6XweXZiztWOa6bNNy4nLh8hsrfFbsWqmxsmjl41Xhq+pX01eXrn67ZtKa8+XO5ZvXUtZK1natC1vXuN58/fL1XzZkbbhe4VdRV2lQubjy/UbexiubfDfVbjbcXLb50xbBlltbg7bWV1lWlW8jbivc9nR7wvazvzF+q96hv6Nsx9edwp1du2J2tVW7VVfvNti9rAatkdT07kndc3mv/97GWvvarXU6dWX7wD7Jvuf70/bfOBB6oPUg42DtIYtDlYdph0vrkfrp9f0NWQ1djcmNnU0hTa3Nns2Hjzgc2XnU5GjFMe1jy45Tji84PthS1DJwQnSi72Tmycetk1rvnko6da0tuq3jdOjpc2cCz5w6yzzbcs7r3NHzHuebLjAuNFx0vVjf7tJ++HeX3w93uHbUX3K71HjZ/XJz57jO41d8rpy86n/1zDX2tYvXI6533oi/cetm6s2uW7xbPbdzb7+6U3jn89259wj3Su+r3y9/YPCg6g+bP+q6XLuOPfR/2P4o9tHdx9zHL57kP/nSveAp9Wn5M+Nn1T1OPUd7A3svPx//vPuF6MXnvpI/Nf6sfGn98tBfvn+19yf1d78Svxp8veSN3pudb53ftg5EDTx4l/fu8/vSD3ofdn1kfDz7KfHTs89Tv5C+rPtq87X5W+i3e4N5g4Mijpgj+xTAYEMzMgB4vRMAajIANHg+o4yXn/9khsjPrDIE/hOWnxFl5gpALfx+j+6DXzc3Adi3HR6/oL5aKgBRVADi3AE6duxwGzqryc6VUiPCc8CWqK/peeng35j8zPlD3j/fgVTVGfx8/xf3g3xEE3j1RwAAADhlWElmTU0AKgAAAAgAAYdpAAQAAAABAAAAGgAAAAAAAqACAAQAAAABAAAA8aADAAQAAAABAAAA2QAAAAC9V47HAABAAElEQVR4AezdB4BlRZU//u6e7p6cgCErAwygiAQBAREkiBGzrunnb0V2V/25urqKijm7riv+DSsi5oSsuq6oa0BAUECCAUwgyIDkNDB5pif9P1Xnverbr8O8jvN6nKK5U69u3VOnzvnWqVPh1m3ftGlT27awTQJbkQQ6tqK6bKvKNgkkCWzD9DYcbG0S2IbprU2j2+qzDdPbMLC1SWAbprc2jW6rT+ffiAg2tjVO77TnhPb29r8RCfztVHObnf7b0fXfSk3/Vux0f31uygZ6K7PSZbXhb7n/2Wan+6N9sqYUQE/WCowR35PVTtNfMUXiPT09U6dOFdmwsW3lypVLlixZunSpn8uXLyeo2bNnz5w5c968eTvssD3/2cppeNEbedkdHO1NG8XM1Xf0tvCOtta14OpVtC9e5JBq095R5zvVSJ3Wrl3bNbU7RXsz5l+E0JAkS6ZcaBbK6YHJE9qrAmpNtouI+7MHi+QuA+zecMMNvxf+8KcHHnjgwQcfhHJ3169f76kpU6aA9YwZM+bOnfvQhz700EMPffjDHw7fSYPtciX1y1OlP1kwHdWvcR4ttYLySId1yF6zumfDhg2b2jYQ15SOLiZg1szpRfsi5FCE4GcAejLCehJgugq1Eo95DJD9y1/+cuGFF/7qV7+666671qxZQ1vTpk3r7OykP9cwveJ0A+V+rl69uqura/r06QceeOBJJ510+KMPRTOQ4VpMdStjughBpIBSXDXhUu0Ckffcc991111344033nb77XfffbeOy61lyx8kFtXXce24444777zzIx/5yH333XfB9jsEWSIlBKIQgn5E4u6kuE4OTBezUWTKwt58y83f+ta3fv7zn4MpHFMYMwPTtEK1NEE31OwRyakL7uqKdD/hOzWAKVP23W/RM5/5zMcd+zgeSC9xlqy91w8p6a0ZCVgX5OmmrrrqqgsuuOj2O+647957tVdC6O7uVtkkik4ZUwoJCCLwrfvaf//9Dz/0sCOPPFI8qpnyheFvzWoPztXkwHTwD3Th+65ateorX/nKBRdcsHzlSk5FKLWmiY11f7Je534J6UZvI9m4HrUjjjji5S9/+a677lojUvO36yRa5t9etussRUOMOt//wJLvfOc7l19++a233trdNa2jq7OrY8qGtk0Mc4goXzdWiUCtli9lxYoV63t6OGZHHXXUc5/73Hlz5xE16+BZRem1xLWKSYHySYNpylu3fh0R60w/9KEPcTmM+Th9SeL1sR3ddBj09Q0DYrpkad+U/EuWnn36P//n/5x88smUR3OdHZNAf6WRq8L/5HDPPffMmjWLlNbxnCtBjeTJiIyxY+Vedr3UmhhZbl3Z9vPn67ue8YxnSAlY67UmBZqjVpMD0+E9t7e1/+j8n5x11lksK0BTAOWFd0FhAh0Y74X0/YxIR1ZuILskFpXCtLgBE5pGls973vNe8YpXdE7pTJMjWdklZ+tEQhqFn78sXvyJT3ziz3/+MweMj2Fc7NZ6mXIVSrY6KBOmi4h685gxyabBdc2q1Vy1Aw444NWvfvWee+xBMihLJ//0bKHYqpHJhOlzzj33i1/8osFNQDkMal1VNQG3t9emLwp8A9O6YDlLotwRh2mWSZzaJN53332PfexjX//618+eOSsoN9BvBT1WMf2zSy759Kc/rTXqZzTvkElp2+qFYRUsbBs21yrentwJ6SqYMnS0cy3cksjDFlm9ctWcOXNOPeWUE088cd26dUYjMM0haf3Rc+tiuqa5TSS+iSP3X//1rc997nOkDNBr1vUUqInQZflZlDfcCC1CPzQsW7bs4IMPfstb38ynZJPoOEZXQXD0BQ2XscgfQCxoBjIYPPfcc7/2tXMIZEqXS2dgtIF+qlc2wCKCu6og4hrBUymyqdd+BwVPybZi2bKXvexlui9CLrAG7la21lPe9a53NUihRX4SP5lu3ADQHRdeeJHu1XCQRUk6wGJ9bSGpo+5mjIxzFDyYrqnxpJnsxYsXL1ly/9FHH13rbSsajMwjK2g0T0W5CZI54PNrX//6l770pblz56UmF7a2frf6rwdlICKgjB4JWKUAqEQhKNfFmR6NFJlFNBazKCKPOuRRGpIHw1qHZKoFtU685TBdpEx/RNne1mFQ+IEP/Vv31KnWw9atX79uw3o3wvaMoRwVZVyodLrklf7xj3+QctBBB23ctNH4qBSUONoiIYmjNt0IT9///vc/c/bZc+bN7QTNvA4aEAzW1IKHgNH4S64yZIMyg52WD9P80UadW4pYeowq1cDt2bQTRlpuQKLWqkz/a+rm+/jZnWzMlhJCc5JvnCVo7qlxzBUSLgbJAOWjH/0oUSrSoNDdZCrGQaZJlZmsfkB8u+2207P/5re/GY+yRiY+XMWDV1515cc/+clZc9IkJskwnwDtlp+CCJ6rbJuxts4qp2xsAYNtnkeK+buY6Iinqg+WFInyGEN/5jOfueKKK1j3AT0c2VontOJ+D14jU0QBUAZYFr0X7LxTwJrgOI6uVaGPRpp0X0iFXx49wLoNG4Dl7LPP/vCHPzxrxswoouTsUyIUQVK18+5ze2x+MMYIgZetLADNdupMyKSdnc0lBIijOpq9NOZAjXbYYYcjDj9077333nmnXTVUI2xQvvfe+w0b/vSnPwiWG7u7O7umJVeEbD0iIqDgingIRHFgvccee+yy8y4U1MojxV6NZsm0xCVGQhYD//rXv77hdW8g6HUb04xb1d8IoY8tuzFDkhTZ3r52/VoTvUvuu+9Vr3rVM5/+DAWFkRugxI1J/eON6Sh9/cYN73//+y+9/HLQ7OicwkJ3tNXmefAsYF6ASxu5Fi1a9OQnP9nS4ILt5xPduh6riRZfErNpArN9k0nn++67/4orrvrBD7534+IbeRee1R4C1imfasU/+ao41N7ylrfk9GhKldstE63y3BJMESs+XKnh29/+ti6SqsSrXV7kGVt2C03FocwsxeL59773PTxIoWlmcmwLbZ5a4PWyyy4zYmOkcYuf6uPBP7YxyQqc+tJTzvjwfzzzaSfvuP0OxgnMaldnsuj+T39TGIhU0TlzZ5188pM+/vGPn3rqqQiuWrEiOXZ11w7NCObw/CF76aWX/vKXv6yW24LxlsN0CNTV5AMVMh5hNgiUfEOCRehjKNABaZqptc78k5/8REFcSWHAEgtjA94dq0Ry+OY3v+mKDdxWQxTBlnOdTVS/+93vfuELX5A33+ahYr4dvVzy6FJI7pLAKnPIkXr+8573oQ9+8CEPeYip7jJiiSJk03P602CEr33ta9zxTLJFL62CaRL2F7IjKv70L37xi2Qgp3TEEiD5SqeNkmfMJaqg8pd40JWbzJo69YKLLtTpJyAMGPKcwoB3NpsYtR4sm5r2yqS9/ZKfX/rn62+cMX1W2jHKKTDVliYt8Ig1QJ+yasWyRXst/MiHP/TI/R/OGDPMYZWr9CFbvcx/+CPQrimd06Z2yblubc8+ey/60Af/zR49jnhC8LSprhusD7R1bGo3hTeF99LVOfWmv9x85RVX4yBNQGWNVOm3QrxVMF2VBTdj5aqV9uLE2l711gTHqZ/RMpl47bXXigsTzECap0tNPaH7Rz/6EURGrxXmFjOpkedJD+1/9913f8c73mFQuD6jbVisMupq59m3ve1tsZcrnL1c6VRrrV1cIgb+93//V4odBEqfeJlstl6tgmliK3ixn8wWJZ3+gH19+HabrdgoM4S2XMEIrE1jjZLggI9HrZUilAwNP1lhSvKywx//+EfICx+sICkyu5KVnSq2RKOD4UKtyQikegpkd9pxJ3TS+0IVGxzvbrorj6Vc27LNcsrAVPfy3WRJ45+tVTDdR6ltm7ywogcMF3D8hTBwCYUlirz++uuN+kvKwA+MUWoxjUEv4HvNNdf4aXQIfNVysERKZGWP6GGHHWZ2D+iZ1GqeZuLqiJRrz7qeQw8+5AlPeALX3M/qs5EHsoVf//rXbqUGFmsz1XxbOt4qmA7N8fH8UQk7HSOhLSUflimMU2jOeyImdMeLmVTjOgrZvTSA6zV/SSCb2n77298qPaZiREoGVnzt6tW77LTTqaecIt0YLt0dPs6CIC10d3V7/NnPfvZOC3bkZEcDSzxkDmUTAe7fXnvt6p61+IZvJbZUaBVMV4WyfMVyL2JRT9Fc9e4Wid9///0333zzBBVdcVLDV77jjjtM1WvkQgFfMENKUHXMMccsWLBASiBvBHyWB6NtoWZ/4mB4hWmN3AyJghps+QiKHvNHWhHT3py79957WwrT+nd98ZhLPwiCUd1K55jZihzAF6ZNPtx1z92xjGruOcaIpbXHbPSxxx4b6K8T7KUXKc1cC6wV4QUZmDZGLwWJRAZX0lj24IO3LF6ce5TeLqWZUiYgTytimnkQijQnQAqDFVF44EwzS0Xrg+Uf23SlJ0xv3Gh0yGNWergWIFU4gT/THWYqJJbSR+x7oKDQ5De3bbIM6Q3cUlCJhExwZRAvv0gpt0UivYLYsgyRVAgLG/S0xSUVsyuhSCMhiFm9do1hPqtZ/sZDYtmdrhH2xpT54ykdU2IhEzMkUwr1U2C/d9llF8v4bhUBljzDiCSnPa0PGEVowKjNnD59j4c8ZNXyFbYMRFmolciGdevvv/c+fratIqMqdxgsNpu1VTBd5ZcKYZr4WkRYYReNz9I7XRMYSEDRJiIIhCddFUjBFhHBtLEa4ypxTLhTVpJ/WzvK/QkqUUFmFcdx0Ny/1OGkTKiShsPYFs5bBdB4sxIOaeAx3IZ6SvvS5cts/LfFwkvg6fWzjKfgrTT47bffvsHZAMfh8oxCeUpEQMFLn0Gntrsr/0j38tTHqhUrJRQ2ImcrXFsR0/Z4JO/QZt80abplpFRVFaPlpwFTvLg+TgzVSqyg8acX/PTLX/6y4bJtJwrFhqGbqwBVwUZEwicpUxBVgDbPbTQMgBYhf1cFVeVQSEnkn0RxRj58s3KrFSKtxQ2JJPR024LQZUSvN9WpbkExQQx+IIb+LNFZ4Kwpvm5IE8OZvwoUR8Kv1sIxhSHvpPDazbF86tOfvvLKK5U7I59tsH7jWsys58yHFa07ZhINH2VL4uq7RDIsPnjG8id/OkMZprnndpCrPrKAKyXqqL6R6M0Zj4ym0GFx2HzmVsF0oIewsG7EM3/uvHvuu7f5aoxTzuAnrOD8+fPHyU6DUVqQyyuC7J8tU8zz3ffeq79SL6UnrNenNQhKYjAmAm2mil1jSmTEckAwKKOgrATizk6UA7KhndJu/cRV7MbB8CiLHjHPgz3YKpguSsKo3ZLmp269/TZbC3rMNGyJEIuIqRum7ClTuqdNswxR7HSVo6LpauJw42EI77n7Hmh2/J81cAfHqHkAOmM6aaqKvCgCb/ctWQJk4TMMt9ySPxGoB6SipnfdcUfVr4geqZ6rzUyfeGlsJX2LR1pu3iPAvdeivUXCQG5ZGVF2zJeZBBjBfrdmmEcfMn72s5/967/+q/M65s6fD0lwDOgex4C7gbkAUIgoKDOW9hHceeedG/KrQM0UN3QexHVH2rKVLzPQUW6UKI4r8RTa23bbbTekeIlDE5z4uy2EaSITktra272iTFhe3xpQIkQ6YPoYJqatyWk/XPpbv3b94Y86vLtrql1omDM1mznNqs2X0HRD6cnv7JtUJrZFbMiOqwhX2EkPXnzkGU+bNsPssM7JX+yT7mzvnNLWO0/Xi6pcdFdH19IlSy+79JfOnElTF+Wv4p/05WKoX0n06fyDJHlviD2wdKnCOfGEYW6vhHA8dn/oQzYYRiqyYuNLni0YaSFMV6UA086RHQy7EyxEc7EaGLe2u7sL4Do6Gh224Gcwbqv1SgO8PBoLi+sWW/j2t7/djmQeVzUnanxZlIFYegZwQg88VauPDnfW+xPr1vXZSyR/NVuV8tDx1Gg3pvOcvN2DAh4aSCkRD9svWLDzrrumW8OfNxyagdHfbRVMVxVApmDkMCQGrKGG1WwNt8b2J20VgqbSvDT1D//wDxdd9DPrel5NZZzSm+I5yBZcNfDGrvWatkyM+pN/ns13gPv88893jtnixYvTANTsSleXKbT4cw5N24aN7Rs3EYVxGP8EvOC7oRTpnG+H5V100UUVlmsslSoMKwK1F190EZre5E3H4dTnWJTuVvzcd9Gi2TNmRnsL4lWJDau4Mc/cKpiuVsxqMEvwlCc9ibPYoMKqEKuPjF+cqjQtujRP/O///u+nn/6WX//6NxIDmsoNHRfFVzlpUHN5RJ41a9d87OMfQxBedQKuDZkR5FULJh+YcDuKyAQbDf4rIy3d9Rvf+IbNg9XSRxy3KVIbVhZp40q7KloQ0bSU6JAq1cFe8eNLnhGXO1YPthamQ69h3vbaa69DDzlk3Zq1ne2mlWqHwRH0WNV8aDpFQyLW8Px1T582fdbM31x7zTvf8+4Pf+Sjf73tjvCY01EIPAQG2OuMeTdIoVyIhMVmm/Xpdk+Yp+Nv/OAHP7BQpxPgWyTUZHOogtGEVNlqvInq448//iMf+QhzboIc9OGsl2wuyU+YtsXKYZA8Gz6SK0mGMAszQ0fCWMTVQZu33XGH/gHleEEzqPmJveWrVu6y+26+soCg9AnTyND8V++21tlioS2KB2vvTO2wYIcLL7goya7vUTVEGTmrNRnbeCmioSBz57To5SV9ve0f++//cABKTraXUOthMBeTYdMFXffn6701eNutt5qpVEqyhVVjvyG9nq1Q40Vdv9NFTjnlpXBvgcPkhtciJQbylJYgVXdwPIKrFStWHnHEo90KxyjyNFShzmaff5FK1Do6Pv2Zsy782c/0DLSgIDCOfIigKb585YqnPvWpR+ZSgvJg9e1TwAT+aC1Ml4qTpgmBnXfa+e6773FW0PSZ6UQLITI0o6RCamSRUkSJBJ2eHi+ZbpwxY+batWsuv/SyP/zhj17g23WXnR2rFzkxGboPbvs+3n7+T89/z7vfbQgGpjK4m7LVHVZFTEnn2nUwuj6z8ta3vtWBfRCTnNi2tp132cXhEIx3oSln2k1XD2h6583WooMOOrjTZEkGPfpC4a08W3+o9i93QvjcFz7/3//93135ZRl9Dsasa8rBxccArwPQ586Z86r/9/9mz54lXenSB6PZUMSE/Ww5TFOAyhOfzR6Qvc+ifS+++GK2gR8ZtyZMNAGForCIdHdPhSQ+QGdn16yZM7z8cvEll6xd23PgQY9MCKPi+C9rujwbPH/9nK9/8pOfNEiQM6ygdKVwWkvOtavT+XennHLKa1/7L3PnzoGr2G/Xs279vHlzH1y69De/+Q2voAghWc4cglvEbbb+05/+tM8+izg2gVT30Y9Qy93vHz60cwkvuPCCdCBOlr9Wmmgm0Ob/M6uOd2Kkjzvu2CAQrRflfvS2ZEKr7OdMVoE9yNIjSnHiFMj057/4+fve9z59bjaFSTUQ77Sx0GLK1HTwbBAf8Ak4AxczCe5Ocdj6hg3glfr9+lMpUtl/4qecqUtZ27P3oj1PPfXUffbbz4eSbHqWriC3XHnG6vPxT3z8pz/9KWpuOfPF91aCf3nQcdVoLXPsvMuOr3nNax71qEcp3flJMqe7ztnwc0qnt9qc3W+0iqaG4W7bQBOLKE/r7nzKU57ibLG0ay91HSmzxZRYIFRcPC5iZGnl8n++c55z9Ey/uDpTJVHOVdiwLn3byYAGkTWrVnn5wDw6z6T4PJGzpa6tYqcTijOCe6WTMQ1nzh0kVt3uvLnz3TWESoP9fkOl3gcHjwWM+t8PdMaIHlxYo8MPO5Qva/LYi4DSYR2q4CB3tn0ISHSk+b333G0hcPWaNY9Iq0XdvIuUOQNaI/nIR8/48Y9/DNCqgw6CddtXs6Ay8zeOOeaYt77tLYv2XgRq8oT1A2js6baUquJ2DVxwwQUi+EStPacXhuRUqJ/retZ6LfeSSy655ZZbNCECtHsknciRbEWa5Dad4t1vHy5zUr3pbStKCEpPFOrkxKd2m5jfwPvB0to1a173utd5/8X9sN/1jK3171B2ayI5HcJOmy2i8jPPPPPb3/oOqxM2pmdDWswbLodF5QM+GEiyAd8RWx98/3s5ymbceD7f/e53TdbqlAVnEVWeDXuWFzvbEwp9OsPXRBlaindEBiQtW7H8Pe95j/ObHQfjQd4wC6eFrK98Qwg0BZ8FetnLXuabnLJl0PeWkxhzNnb+EJYqfOELXzDXxqaCb8O3iMoz7LTGL2ifHuGHEJ1RqXYF4nxuTUhAWQdIvO1T0jsHfroiEg0jUduYtpLKYAbmBS94AadofU/+DsbwhV94G+9I69rpJNpkDfK/7e0Or7jv3vsN/AGL5UgnGY514Izq/W1jMDh7yO67KQW2oNMbrKAA1vplNrhSbPCQ7VoyDpvYQl25KRG988P2e5ivYL3r3e/m3Qb+AjF80ISY+nxCUPuXf/mX5zzn2fDkzHgp2Uj3VpDnANClXANH5xcvXrxY2zBpgloAsQpHS4Hyu4WTeLNL1fCGJVA2qYIZt+BVw0sUOtL4z0/ppSARr44hq6060RSTUmikoclV87dCvBXttG9QpA6yYglYccELgf/1X//lDEJKIruE7PoeGnfNpCbdVJ6qyhcoIpQMiWLOLyXiLLQPJbKyCxbssDH3wGGHKZsbesedd6SPMv70Ivhm29JUcS4xrfal/rp3yRpj7PHjHvc4/bsNRoAiBLelRN8mFQcvnyR84xvfuN9++9gazUOWiM88NEOzxnQ8VapDNsuWL3MIGFjPnD2XJQYy9DkktcfTHF8vNEsiPoVCJ8jG3eKX+8kqq50IgugQy/4HHPDOd75zThZ7PN7K/nSLYjoJrmKJ6ZaC7TzTSV566WWf+tSnHC0OWHQZKmFd0qajDIiis2okMC1D6DWuoTyGig1zy8cRLYBPzV+cL5gGoFR0vfe/9BeXf/WrX4VUJhmmEx0lczc31fbQKVTmoIk92TgAUuRxK2yhDoEPo1Dr/6effvr8+fOw765196gCTAer1SqUOMA5Web+Jff7TuQ1v/uDNuaWIrSckie++4g7KUEzbpUUEelCpFQxLWc0EjyvXL50v/32e+vb3851sU5emtk2TBdRDxqp+tPsdMqXMR1Cj7sxBUxNf/3rbUY2cYYd0BSiMntpr/ysRmA6tFhTYV3ToKAjNpz/+7//+5ii2pC+itSrvEIEHNG3JYNnee7Xz3UuNZXDLiQlyvnb9JE5eJaecLwxLa3bvyZeGICYZUtXMOSv/ud/njNn1pq16T0o2VOTRGlzQVPy4i1YP7j0wf888yyuTizflKohEN99LPwUktU8+CzpgengHMMstCsL/cSTTjQu1AgTzW2Y7pVXE7HBMB2Phu/hLHA/mTSYgzzne3NFeJbcSgACCyoZAtNBSh6ZAZTOBEM3Z8M9/elPD2NJ5dqMvzBIoUVXz9o8He+Nu6V1xed0re3Rt6LZaU9qIXIqAtZF0OcSiMugRBnS6HD9en75M57+rJe//J80W0+YwwHotGieapj8jmIOg+e4BuAiHnkQ75jSec43fFHua4gDYuI+hyqmcRXpKKRmVg9+1qN95gTRMYh09+/+7u9e8uIXltmS6rpSK3+Pfaj+urfCrReDcnpdtXqVeSjTq8ZhfNPwRgJDOmj6CxwkzOWgHrxPVzr2iZMTTzzR+A+s4UxmId3KCO71OjNGC1aqkvB2mUblCF2J06bOcDVtp8GET1LPGX5tIClZawO1l770pX//kpfUM/T5d7A+PdDXh6v8HPRj+Pd/+L2PrWhmaqqNwXr4WNHG+jLfi2kE8CMPKaWeKf80EtAU+RuYtKkjsItCXyJ9eG61H5MV0zRgoo1KwiI6UY7ZtopuOpmNYQgphoITwrJ3QSXms4SddtrJdJtFDQrLmqripFc7VWyFPeuvVKv3ptiuuPIK/v2999xvQkZOLFkPisy5RQUaa5iWbjrMUkh6fXigUC23en8wTOs9ohPQLDkhph0tbcJ0vJnL4qaxbEZtnf/cbmsrRwnNmUnf0WvjaRCa+e/nPOc5j3/849Okis/qdaYOp/ZsfyaqLLZMfLJiOnwVYiR3wIo5bBZr6bI0Y2WlDaw5vu4CmVGUqRKAZpJhGgjiQXdNaHi2UJCOCOMX2KLvlDIQ/tyCaf0ybCrxrM98Np3CET17fR3Og8kbqgdQk2JQqEVxR+rJtRJTQcn7GDgMBidyiE4mJrCNDXzwRddx4w03adudDk/QsLNPohXh2eSKAmLEzE+Tn+uj5Xd1TzFFeNxxxx166KEap6dw6zpYGxuYy9ZInayYDh2HDMPTDR8ULCKx+o53cS3chWBQhq1AtswB4rj6GXZrMEzH3SgivHxrKzDx6bPOPu+888JUp8NlMoBytt45NYjHCQr//M//fNKJJ5ayglpcB8PQEJj2YDRdlGMNXMqf/nS9Xuu66/+4ePFiTc4WOwv9iQFWm9eeyfFSzGaYgN9nn30O8L2Mhz08PJm4IkJWsT4fvE2W62TFNPkWeEXENamBJaqHSAEvuhxsOsHdevZh/6u8aEhnnXXWt7753yYfop2kF/jKHFl9nliKu67wxx/4h5e97FnPfJbWmHir8DAYpgdjLurIpy4haho02VoCue2228wbPnD/EouaFhE1vHlz5ht7POQhu7kKnq1S8LO08OHyU9jYgpFJjOkBpVZw5m5Yr8g2HrpZu66HN29Sz2b8WTPnwI+ygImdFupI7W1jUgKCsq1cvvyFL3zhKS89pdrJSB8unwXTBYVVTJOAoBsJIUTmOmOJy2DYNcbc0UQjc1yHy0/12S0V75XyluJgDMtNSqrYvKqGQjcyFI2OvlyIsGfwgx/8YFpYWZvGaoHavvOJvZiO0oMBW5C4+7bOWbascjJcDAUui5WFbCZbohAFuYI1oLsqSHK51ZEm1lNI6RUmQm6Rbbj8VMhssehWhekG3eSfNWWNRjcFBA1auv6GP7/hDW9gqmXoaE8TLCIJQNYD603LGJF3IT1CeBrQb6Qmj30UT3va08Da3XhkuHx6MFUz+x4ALZ6j6bxdBGsWOmSQc7rf2/DzUnyU2x/TUdnh8tMgoi3yM+aYtkjR41IojVb/qCT+RlNYaD0o6KPT0LCt7YGlD9pJbMzHBCoirY17ea9jk4mQtHjoEJCeNcccfdT287Zf9sAyB3T4cxZHh7m+TR09q20r3GR5fPasuT/+0fn/8eEz0kTLpnaJKKMf52ZEWXEdjH+8CVHHqHjk1NKKy1GTiAWe9JdPIKT2rHnPRv4BhSbvYOW2cvrWhunxlnXYQhMC9r6aUjDAYimjWy9FM8aGYscff7yNbD4pa6OftRjoCYdb/hhKJjDmlUUnIvg6spdl0vJ49gKkhwEuNLdFmpfANkw3L6uUE5pdzznnHPuqt9tuuzS/y+3orixMMOEPPFB2Zu6++65e0vEOfEyWe5bpM9MB9ymepxRNmPzwhz80ecJKl+bhlgzbwggksA3TwxaaI3RtzbOOA3bmxdJ0WXIZatMIIo94xCP42RZB0jrIpjZTZu9///vtYuXjuhtgDZvtZ3jhloTA+swzPx1Yl74tjFgCrfJOwIgrMAEPAmyaSAbG9vY77rzzAx/4ADfasjNcJkSm3abJ/+C/8jGsVr73ve+13V6a/HmeIR2UaBeeBXz7Uqw5e7BgN1NNC0DyuNvTs/aAAw5QKenVqoXPU03ZFh9MAtvs9GCS6U3n44ZZBVkvftvpzzzbGlF1eUHcA5BqZ6bDZYoZjjzwaeOgvf9PfOITLVmDby/1bKpR1jxYay8ImvBm4KsZtsWHJYFtmN68uNhIdtTujq+d83VvFnoRy+a1AuiIuNoD5JWCgw862HSBJeWwxLVVQpMj7Wkoedppr7e11QsNUWqDMZaobdga/sMf/VDmWp6JnHzQJSU3auAw5M1BHiGXHAa+PT6p2zA9sFwpwo24cjxg2ifHv/3tb3OjzWnAa+9MWSZgCysbbLLZPhMJMbMRj0cBGoannG3klDA5eS+FvnQOCXwbcSIr/p//+Z/xQe+UZwiUBelWvVarP5E8jhzTA7baUg07e9LrKvkvOZ3Cho09a9am7Q/1v1oH7Wfq3c3DJgxVw0QKoqGssKDWMrBl8x3fwBHRkNrR2T2la2q78z/apngzwF/MNztc+B//8R8DuGVGGZEyKcw7ttDi5D0k//V1/3LYoYc8sOS+7qnOUFy3ftP6ng09zjCd0j1lrWPKOrtNpXzs//vEbbfeYXmygbHx/YnLPm58n9IGupl0GSpzzAkdF/V5UvVL8NOtIBfyKVLqU0YlW0N68z9HjukBy1CHSBcB2UCzeNQnnM7yYBgzP50/k6+1/RIlQ5FCSZnISJQOptqaibabbrqJG11lIOyrOpqMe+1rXztr5ixGWmLkGYx5GfjTzoA0arRjLix0kVs8Zccct9tY047ZxEAdDdXSWy1eqhCMFd+p8FlgECnqVW5VIw10qreajDcrr2hiA3NRL4roE0OVrJHiahHYBC1rp/OVHUyEBTvtOHfevFkza6+IUjZBoJCI9A01yrkR97/bN+/Y/GJFhGiT3ABvTcfkXZzDFHs1lYQZDsNpp5123PHHasPxmlOVgyGW4kjjbe94Owd9zrx56CguE0zr6unw6bY2sLab+X3vfW+9mSSeJqb61SoMNx4VyXVp1GOQCtlGRchns/mHy0AvxaGfrAB16Iy1uxiF42uuueZ3v/udo4DE491scwNFMTNmzjTSX7T33vvuu++ee+7h1EOwdrc6LVAyN1Xq2GVSX+YZ7Ewqm8rAP96owZ56V7N3isKndPuQ/vVfX+ulV8kNTrY8g2GaP42gT3o60uCOu+5STZkT5fa0H3XT+vT2AGuN/ote+EKvemFHytjVbxwplboMVgZMl1tbEtOFiYaICoSsKcmbUu6uXLXSqsQll1wC0EyXKQLdK/0JKaeNDfXgVnp1L47sbt/o9CMnhwsL91gIT8CU/NdYb8sOwGD4qNMby39ZaKGjc8rZZ599zrnnpuNdcjcC02lyOp+Ip3ZeOD/jIx+ZMWNaVU9VPoLnIqXqrVTBrk5v6ToihxOiskk++fy76AfiKbbACs6TnnhSPDsgqSrZiYyHlEpL9lMVBJilQZyEg9EQzzpPXnjCxCAeyGhq0aydbqYMW84dc/j973+fYeY666w9RfHpVA72Jxk5IVlifSs0R3BLhEJ14j7xoAE4g/5FL3oRuIT+CqzrT9QeHO9/aOia313L6zCThweSUiJMp2GA8W5+39HdQw4+0B1bOPvzk2ra97ylah5twxgUNTMq73rXu8yckBjXLOSToEFieUZP6e9/33v0Zh4pAKqSmvg4xkIvUXRoSlxDNafp7WOvPGuohTEbY8yB+naZNSnvy0W6F9GrmFbfkn80kTHAdAia0/mpT5/pFVcDKYBmvdUTZ3SftZMufjLraXdY7rtlqG2STJk30KjZD0Jhv4nAty/smg9THeKr1n80dR762YJNU3hvfvObvYzdlQ8wwENGWOpnvObnlcfnPe95r3zlK/JKogmO8lwf8kPwrPapwWvPnZ1XXnWl3U7walJFShBzl9Akpldfd9vljDPOiEF2SLJPMRP+Q21j64vlIRHBie5OXLGvy5qUCXh6xHbhK1VtypR4JXTPPfd0WI+hwswZzqrNBjusdXbrAhsJJCMNo8W0yliM+PxnP/fDH/9INcwAMLdJE93dsC6iJmFsgkMHs4mEUQPohOqMdahW7fhMG/QQx+qVK72R/4pXvIJ9kiJ4agLUGdhkea3neSE87ffPFeE9q6CJafw7nHevvfb6j//4DzvpaucODAfTap2EUDdLvh1ncHne986zO2/OvO3cjTFiyC2yrVyxzKy2Dyi2iKn2jo9Dc6CZx++jYUa6DloJjTNqZIV5Cg2lJ4nlHsbV7H4ketn5kEMOefYzn6VDjpSwX+WREUdGjmn8YeK22+/82Cc/8dtf/XrW3DlFSZmb7Ggkw5z0F1eRap6SmNN7V4PliWypoW9cn99IfTxMh1Fn+cjLz1zKWF4CzTEfd+cdd/NifbuEejCDVSUqN86l1pKZ1UcdfEgpPhguPzcbUZZmE1acUUCfMDUhx/Tb7hdlKaXQgQ9duRnDp52clnVK9z1ya1ZIDxmpjhP4wUDMMGMAP9BsEcrWK14TKelmXavfHS4y0d5TPCNBad35S2LAbQg+c9b0ww8/3OE4TigOt1uGURqvEe5hCkDf/NdbTn/b2/gb2++wA61QealGUlkOUqrYldbws54t2++azU6a8iA1O1bTkTRzZs+xqKGXkkiy6TIOgUwTalOZHV/84pd0ptNmpBOjISxKdHVPR/SsZz3r5KeeXGVhBCyligSJRDYd1KQ7VqjRCMTgpEofD0YajnU96qij5s+bH+rvpVDNOqbxmhYzTcWFlrEHyra+XH311cTFUY5pAFWA3lJ+kQljlGCab6CQsuXZLc2AS8K7o2Iz8TZv6a9SLllH0SePENPKtcvs7e94+/1LHpg1Z/YaW3DS+0u99QlMqxXuE1qz5+x2GmE5ccI55MxeveGmWvQbS4VSHfxoSuvKK64w87DvfvulRDRTratlITAmIfUA4OVYo7M++1lr2YiyPapQqJuz22XXXd942mnSq/Ut+is5h47gPiqAuGfDNxVxko7DdxgwIK5SSHk2pC/eOn7yuOOOI0N3cVsOP6hmHsN41Dw3HmJPZy2sWLnC0v3Xv/ENB8ibjZUhHRNvFZET1lePVZlEZV3DQLiF+RzStzBFnADPgdl3v3132G77dT21pasqheYrNUJMGyFZCbPxcu68+etys1OkCmOuzkcvDqI+wdPaHt6p0VcK8F0Y7Y/poKPHSvrbtMl3AmbNnu0IpXhkfDCd/AHlmr+74ca/pDFrdgkqlXI02QrfD9h3n33oUbOs8F+tZUnefERxgRXKhuy5c+bu/pDd2S22MOAeVzygRf0wzWFl0jDAqo2w1M3zVcvRq8VsRxbfvNhUD/NMF4nz3NpDU+ICY1VoR3r8DD7jGjTdFXyvTNU8qFK+KeNNix2238F5I1JqD/YxlIX2UJFhYxoWgfeMj370d7//Pc/Pt3MUzi8EMloJVgzP7QNWLKaJfuWKFaYyKImt3XmnnbabPz/gsmzpUp9TMB5OXbtPS2aUiPeVI5KbWPXuqd2asrOCFixY0ICnoeo3nHvcRIz85pprvvq1r/myVvCv9BD69O6py5cuO/oxR53y9y9llLzuF5WNEjw4nKL65M1WMJltXQR8GzwZjJpHMs5OEnSGbx3fOCE6cuCBEH7icFz6q1726EKhAt5uuPEGU+mmNZx0wypjLULIITlQFUAn3ioyqUqnmk66kRMRC3Cul11+GfP/sIc9LNUt92Bh76oUevkbKNbo7A6UJ6WpFcjG9ctf/Yr9kLyoBGLrXsquwxBPAlaYMMjjetLQkY9+NLviIDayiEGxUYXpHsEqo0Mcb7311s4p6QMlCCqrepZA9XxOzckEpzdbudfN13CwGvVPN/+A59Pe9CafBHBuejUDxnpWr5na3f1v//5Bh0eqrzqqqTwRca3mH3HcmEw1ieItb3kL7M6aM8cBrAoKyQRZGRye5NWEaVOnjU2pg7Mb/LhvWsNLaFRmIkhlHewUinYr5MCylZSgV5XJINNCJu56v2HicX2y2tHCP/3TPxmx6LhKxYeYFW1gv1k7Xdj1qbJP/ucnVUzBCeJ9uz8cSGdmVq9eZWu8Q5311I89+mhrhPyk6flYWxww5PPmzttp5524j04yN2d3151333777arkFrqFS75HiltrbGufPWvWrX+91bSnsVSpask54kipGht5wQUX/OB//ze/OdtrZuhGcSuXr3juc5977OOOSaLPQ7r05fEYN/S1Sc1zEqagikspyqK//R/xCB890sVF6VV8QLyDHg0zDnzkgdVnmy+3+ZzwpThTLlwOVz0t5YIdvzGzxAYlGeS4Sx92qj/73KgWXzeHqdbZaHpKhG+938P2YxCjiyjd0aB0KjR7PcJK4gBRxUSqV/HMwihJVWOkUnIHOFzV2c53H9P2LT19pZGN/LK5cqWBPoV8bl0I6PDDDnfyizk7pdi4UwimR/IP3Zp/WX2HOPqAlZmBap6xipPmT37yE1fcVWmqkUGbfsZ0R21gnhY+s+PYV4vVp0YWD0ERy64772JuHieh4yo1edgUs35/uekv1fTxiKsmHiz3mLnj7WAs9E4myeWsBRa6GbDVsw/0r0oJAAA8IVuF5g68d5J7oOcGSCtsDXBPv1P+fCfK2t+ll/3y2t/9Ycb0WbF72DbfjDrAS38b1/c41ML1Ff/0D1YHeBqo8yeYXoJAiiOO3Qi4F8we1KZa2zc+9eQnf+jfP7jrbjuvXbuaG2JzmhMxTJRwb9JpnO2mRTf2rNMY2r76tXNSn6hV5KMwsnwH4L/5JHSoyMK+78DyjoiVjhLDOVg1XLV8hf3+c+bMprr4/CGopbUu/+XQfFnVnKg1YCG9IOM1GZMtbW22vjANK1evJjX7QMgh9m07BsTnFVeuWP3lL301hCBzjdcq9ZHGQ54IWlhBw0vyv/Kh0enTV3m7J7yO1JITjuMvg5uq4y9KTXF0SuBPDvhHs9U/WwNsH3dV5TvvvtuXz9k+4xxEk6CQa6Kmym4q6Gr4Od/5znc0JqBEPCm1HnJZyXRpx6eeeuqzn/Xs+p1m/4VslLmqrLseh11EU4rnwwTYHwL/fjL8vuV60003BekqG80WVskHvvHL5zT/53/+R/NDMAqKSrmrXzISP+GEE1J7msCgT/D5NkMIc7fVYpOB2LiRybBXjH+iWfGaqhnGJI4mOZg8JhbtvC/NOnzpZtQWui/l2q+ooMX2iy66KKxeA+QGfCoSm8W0BmI5wERSTFkEkgqeRBRJ989+9rN10ByMeqWHKLrPLe3DZg8IM/Q0PDJppXmkntdorK4vdl1BNMqZMdulxJQhG8o+tDb3w4NC5NIOI2JW+JZbb52WzzZoqB2f5xnPeMa8ubPX9azZHO2xuU8aSSB5DuTFL3yhAQqGC1fk4CeuuNRcQd/gUip7NjZlKzprU3fh7+tf/7qC9LP+6vT7YSaQ3Qfcqd+u5x/Jv3igZWBTwSUPLFG7UFlIZmiK/fgbPLsWo3oKEyJX2FFxKeBlou1lL3uZnwUogxPrvVNsTHJDsuD22Wtvw14QLwVFbrUSYJ01NVviJQM/tZ9eWsOPqULUQiMRUYv0uzJIRdLG7uOOOw4zRDz8Ekb+hOYKvtyP448/3g6TmDpQZewRQojLypfvb8jZwPPIS83bzuJxAzUhjLRym6M5DEQNTTC0b9L6Bz/4gfo2gGGIZ5vlYNWq1c7ojiUfjhFPIK5MJRPNkDj4/uUvf/kQJcWtaP0N11oTSR6Z5pJ+ea/JNgDzweBLW7AeVYorTVv04ftKF99soQ0ZEAk60s1d0JYj/s3fMXtS0ng0T5LHNlH9Pk96+vTUbzTQGdefuCKI9JpmW9spp5xiRxt/TFy6ANDaH3RrZs5yv/mWm3XQ0seEpZA2Wt/7wfdDUIyklyNyybXLKM3wZvlUbqqOHQHTp19yySUmf5mbJivYLCCMQE3lhLsZkg22lARVvA4Dmj0X7ikxOQMZl5vlu5ohRJUfT32uFmLORHGxSuxuQWF5Kt6srtazGi/Zho7wdvBvdBiIKZkVp2pw7FAlVZNe2lXJM66RUCreCHOXnXd5wfOfb/FVBVNKvZ/EQDhp9hJFdzcCCfSvhSKMj2+/43ZWLNgYE7L9C9psinL1+VZ5TNWTfxn8DP1gs5j20ooXLqp6DcnGuJC1SEOo9H2FZMxioDp0wQPfpZn60NBHT+CpYLpBrMzXTTffzOUyVVxIVZVdEoeOOOrOlt/Uw1Y+0uoRpKhW6br+qVPNQgzQqIamPCZ3sZG6rfQ90qfYF4CfekKyyf6o2f5e0+rGi8H26Mu19qRv/Nkll9x7//2lCZF/XxU0i5xR8qNQoLr88subr12znMWrK0xXYbHUkJQta8EfeOkTw2CUbE1GQlXBNzph6R/96EeHFpM4c8caV9kUpPn6evYo/WkEf3z+T3w+rWEMQKnW8x1JykhHEWPosA5XJoDb07PeWIWUNGNXIWTlFhGJ86qbJNtMNmLRDXLG2A7xqHsU2ufxMoQvA/nRDQ37EK//0BfxM2O7Yj1tqH+HwnR4Eaokcvc9d/I8rWT6YGvMRtev6YuDlgNNPBU0M+cNHnP5OQQvSWRJU8n3ACOcHXLQQfPmzEpnOa+3arN+g8G9XSEW3dvSJ6E0XwsBZREEn8IQ9MstGopeTP4777rn8iuu6uqyNcx9Zdb+wkg//aknz5k5I+aMpRQKExzRgLu6Ox9xwP5POOnEtT2rfSNrU4fp3iQNZ+eYyqV1vc3lV/wyjHeZWR8WnyE+z1KE8fddd9wRRjr9Tm/emSFKf+lXalHkVf9LgDalnK/DKnKIzPk9Fyxxq7HBub3tjtsb6hWV7U9j83pSAV8i9JIZ0lXQ5IqlhVwI9iH4Auj+ZQw3BeaCuClY+1rgL4SLTqRHRKfBRCm3ylUzZXkQz3KS0UWXXOwtV4vhgfLyOMrevzjmmGPW58MbSvqWinh1z5+X2ebPnZfeTa6LCD9J8dlsf+UrX0lzXsklGUlAJJ7VTzKKRuGz4/NFm7cUyR5kiI+k3AGfCZ0WdMK0Rjtgzv6J5an+t5K9jFRTeJxpwPKz9NFRqp+CrR0DPD/SJAURK/rmqsEa2hQRaotCETY7Ib1hIb3JAlm9yImarwna+J8WzLJhSOn2lmyyzrLyqKOO2GHBdvk7Frn7aJL6+GSzj9efrQE+Iw3TNJEgmNEWklGs1QNTBLXObhRs+GapqXqzDLYFp0469V0pmOwqb0ZHyjhe8xurhb6aql35GRGcDaiYoTDtSbAmI0arP6rS3by1QyTZ0YHpR+nDuwYpquJdsKBsktIbSCjRUAZj7jbcauYnzj3IZbTdDMQVVJARjxv1Hv+4xzVDasLyxBEipoNYEO1ZFQSlF855IKZy1+ZdviPjqkjeu0sojEy2Iyu64amEqPqYwS2evRfRm8TYwJgOeemj1SqstZSoYYxRUuutmwqYIM0Gnob7k3JqnUJufMgrMaZZolw1DBXGNRJxyKJHWTIIzZTL5Ui7VzZtsrCcKrhpE/49q+VEMEI44vDDbeElxKhpM2THN8+mTT6TjEk74yzWpurHXxZUFE3xTrC2rb5J3fdnOHStFCsdzjbxF3mysW6QbTjT/WlESvUujA0Ms8EeTumV2qkslrj4jo4Z6pH6vYELQ0Iw/NJcUExDFMcb5CDds3EViQx6wzrBsfmXHUoc5JO7FAG7pVCJ4sCHHVocbnmeChmZbrdvBB0/o2pKibtK50lDRsx4SBxuKeOUPzixrLjzzjtzMUMpygqZYFuKDzMH26PhAcEtXmsMBA9RO9WhqWYqNTCm40kDDlRAyiKWvrgASxlpjJsDTHAAfCm1mPPajWH+A6fFDiSbnX/w49PMhjMSco9R6oa2FOm87WGWk9RvHsMa4dW//lWsIqEQsI4K6ogWLlxoGlFylFgtd7jFjW3+4MQrEQaLEIx4pITu8e8nv9MgYfTlVmtN3UXjdcpDW9/q3arNrj/dxL8YCB6iu1bHUNBmHx0K07r1MMMMtkV/ileGlNR86qZLMTB90003pW66PgDfbKlDZ2BmojJ6QLAOHqSUQj1ufk9fbLlBPDJX7w5N3108Ww8XQdyVP+1xcaRgBaB5I5p0cWyC4LCKiEfG6eqoKgsCfCT0C1d0HybGgRtjW25IeGxpNk8t9AJ+Y4BpttK8MqsmsufCvW3bndLRlbbw5kOX41N/SuIAeEc/XuaD7JE5c0Uxqho+j4ithitWrXE0kTep6gNwTSr/tbXNmzMn7DT/2F8zco+crrffeYcXdvTUEMxmax5pqwkfZP2GaV3dJx53PDmapax1PnCT/1LltlBQu1JBovbW1pOf/GQ6nmZzbN2+ADTu9Kjegf3ttdfYWh3MllqLDMZ+yN+VUU3X+vb8armDPTse6fmdwLR13p9DuGHP230+gN1MXYay01VevXylnhEiPaSgzoTI90h7A1IHRcCDCq5KsH88CEpXg+hYrYiiLz1+ulX0Sp02FnvH2KxtSu/1XPoT7pMip1pYlzIGgGn3SrnipuENDffZZ+8+z7TeD0J+zGMes8cee5gN0PiiCmHGiEiKt4Fw3aRhkzME60o+gheZyZzhb4Wqa6sqCGY2KTTDT7OYdmSMETfSQtBN1c9jNSNIUCDEZKod1VNZP2+Gg/55ULbL7IqrrlqcT29RIhTKlgtPpctA4k73SksMmZ/mG1K0AbulTb5aLqqWHnbu2GOPHXAoorZbzErXuYzKBtR41Y9//OPjTugiLI64inCpbUM1iz8sA5MAnU2SlzNSxzWsh+tMjsm/UaMgpYlyDu1TaJJys5hGkV1EVAFBWqmBNuXxAdhUc72wNXpMpzqsX2cDA1IaTBQUhdYQnHHsTVtajBR3SyRyNlzLXdRMvi5evLiMEEpOxWm3hx12WL2K5U6rRELTaq1J68141YbvfkZ6qSMB2iJrv7salWbfTB3CNKDj5UuS93QzT41HHjwIhbKBu2XdAW1NyVMizWJ65szpzqIkqYJpRRZRqry4D0QoW4c+AlkUajSEufO+/33uQRqomUiO7tB8Rd5FjQEjPG3M2+YNnWNVCqWGEQlWUfLzzzfeuCR32dUmId362X77P3ynnRYQZtmgksxVC1joanWMcAwADAN23GHBSSedxIkK+atj1Cg6a161FOKKukeNqnSq8RBdyEc6r2b+3Lm2WUYe1n54Br9KetRxO/WnzZyRj9xvilazmEZMTxenioSMgnyBkUSHdYA1uUgs6U1xkTNRTFrQ6ei48uqrv/zlL7Oj1YJkYZtoiML0DLxJkx5SQn/NlyLnz3/+89B0tJ/yrBlfG1yb3npentsyEVVgSmOXOQ7IgbhCYoSvwzGpx8WKOhawDsZr7cHseIgv2GEBWLMdg+WfyHRs8O+5Q00W2iymma6FCx/q6JnB6kmOtmd897vf/fo5XyffBrhslhsaksdu5uv/fL0vXCXDU3/fpHh1aBL36p61zlBln+gp3swNfWy2CBn0reak+R7makwLOKa/+tTc+fP0RWnuuhRZvd2S8Z0W7Hj0UY8x41mMiN5TT2e0YKjx4/PP5yxGxZtn3wO86kMcolIfb0zoTo86o0WtbA3gzZ07Z4x9D5j2ZwNNTOWW8pK83MjjNldHQNgdduaZZ8JfkXKdyaH+lRmsvc7gBVsaYqTBmhkuz5QS+T9O1tp9t93dwlQ0hpJtiIgicOVkHBuvg1oDk/vsvWjhHmO5wXAIZoZ7qyrMapyUeNWEIJIqmOlG7XhuRjjqO9yyIr9XEEawTDuysoZ+Su0OO+RRXMDkBTYRmrbTtk23bzr0sEOOPOrRDy5dYj7XXmpbLdKhE1O6Yh6xs9sWci+QzfzBD3/81re94883/AXY40QOr9XFCSEi8WcfSZzXERE747769a857Id3CGqcEP4fixmenGv67Isi1/ZsN3fe85/7vOLjFgVzu2P1ccBay0bT1lC8DxIeS+zxiKdIzRY/qxjEYVZXaQMS2YKJpUnjoRrXJRrUOqqBrWGSa7fSHkPHqkxbuWzlb67+jV4nOp5smEiiN6BW+6HiSX7JbyR8b2u//73vNfkdGSbSn8ZAquMm77lu6HZk/bq1e++5x2OPeYwJK5iujnNkGzA0i+lYUVPnl7zkJXY8WsGCvCTHesAKt0QifGjftlK86U1v+tSnPm2GQe+HG326vIkt77DmYuXs6pry4INLvXrk21af//zn4Uyok6z1AFFJiWYomXA7eGIGJrJVFVwe7B+RDbfmCnw8RRFoYlU2VxZOxND2UQcdH1IB8AAAMJZJREFUTJ7VzqE/nVZLwS1peyU5+k/slYatau5qw2mUkiapVK22bSaEVq4hGZnJxwv5r3nNa770pS9RcUgmsk1YxaO44r6ycU886QmGxVRmDqcZNvo4lJt9QF9vVvj5z3++E+2NQgIWBXN+gmkETj1ufK/opz/9KWfIQoZxq8NoKEB+t7gQekbQN79hU8e0mdPslfYeXDLNeRYFM0XowZgDCB234NA6J6FultWGDNSD2s233MKZNrTCAw264lZOrXHhwoUmsMSnefswmYqWM9UNNYqfUZcjjjjC1KcTm8oqkq06qmbgoQ3feuvtixbt5fsqcTceJA2VNGdqCkU6I+3N+XPPPdeWAXiynVVLKHIQCV0MyMN4JCp9alc3E2a31gknnIClsiy62eKaxXTZ/KApO2bJwjLjCrjr8idoFRPgUHPIJoI169KeDfMkbIAlbqdHY8tP4pMTpvX19AFYUmySbpuSgJWEW59t7c86zPn4AzqMfYTUV+ahev/MDSmY8aCjEy0PTXcSeN1Ow64JQec7eqUysZHDBOuvgdVh/SRe9TJ3a1Hsql/9KqEwS4e11oxVbcnSB6686qo999yTtKuUAZpO6ULktttv0yRMB7HNhKD6FISs/OGNpOPy5cshhJMKGs+gFAE8fAjKHLyisIqZZspsFtO58snfUlWNW/fk/dabbrpp+rSZZCdRJb2IUasqxKTSc2cxpWPmnNmRbhSzbGU6qJOsmRA5puWFmySeTWlHq2zuVvlO09P1FD0sryOTSi0HS3I2CesgwhSJBDOUlOOpWSgaJgwSouz+bFRZaqk4yZOD4bR9V+ZAGYWe9en8qrxZJXlWHDbuxwte8PyQotFLCu3pZWy1vv3OO50laXWGidHx6iqle0yWZJs8E0jauMkbGBIprggw0RnTEDqKKzQ9uGyp4a9jb8PRVxT71Qysh9GJ0zSiAiFamD399NMZTu90RYNORQ7Sdks6domY+0E0Qn+BRM6SX4aoYeQ0UfjGN77RUgKZB6DTIllz9UQHWd5O4TYou5oq4mEbZkXzqJben8NWSyEHxsyuL+o3zmFfvXtGwsGnuqivlnzNNddKkdOVudGcnXPwuS98gRIdhyeRsyFnjIjIRJDocSGhPAcNRrqUuBuJY3tFXFvSJnHC62A6C323SnzoSNPnT9fhlaqb+yZfyjnyqCNvuOHG8FAbikkjlZjmFan8Jb7S5xHzeyap5dXvplFtCikhh5BdtV1SiWk4gxheeHdXp6XEzs4ujleBqUd0kg2clJ/2P5zzjW8k+nnTT5RlDQcOFi5caJAQI9fE7OBECrXWiSQ7vXEDwN12663XxQhYow8h5rWY1StXWUA54IBHOIHQdtRb/noLv9nqGOtgpXD6jBnkRoYkqVLogFXULovCVxzSwi165O8qZ/Pw2qyUQsuRTUX8BOjUvUybao5h4UP3AHD6SjDIiq3iYTDiw8A0EoViOsmqbZNvNh5++KPhjP2rzlfICdPw2gCO8rNEUs7c7huQWKpaSkylt7eHy2tf9WWX/sJBM2YAIbuYJdJvoOOpEgxGL7jwQjrTogoDME1Vhp6PfezR8WxyHSsZyuMtHcnDGGi79Be/sNCqDwybFjVyhdcTjj/hhhtv/PJXvnT2Zz/rRUyZCdMSQHpBIj+enI1slXkzpbJrexyPv9rpaqeeeqp9UeKIs9zRT5ZsI44URaBQ2MDJv7zm1UcecaSUBPQK9SoeKsl9os1iGq38l2BdibRNmz7t6Mc+xqe3fvPb33hdrHtat3a9tmeN1wm8z8ZLJrWMNB5Lam/9O5ColXtm2nw5TwUcPZ3rYjEyzd+kDEixEO1pZcFPYp0+Y+Zdd99zxS+vvOzSyx944MEFC3acO6e2zsRl9EQqqA7wZHfaN/3yiiuuvOLq2bPmaG2mE5lrpZjvWrlyxbOe8fT99tknBJMkqIbl4T7i2mI/oC2VrWK91UoJ9fTkjGnbxnnL88G+5Bk5iYupM8t0zbXXOqTUxA/xzJgxUxdHvOkzD1kODrgmFtuyLTcoyq01a9byzPfee+Fpb3j9U5/y5J133PER+z/8qiuvWHL/fTNnTCfkKLqmvsxYYqhvkCcy9E1Wj1QRd9O2Ff12+nDsemiBlw3r1/3r61574vEn1LWXdFH+GugM+LNZTA/4sETTIKS5aJ99zPwzn1atfJsivX6S54MT04bbmTtxoa9G6irJo1p0VJUNWLlipUgyNl4szfvyQpdyFzY0ZRkYXd0iV4QueUGc9R133MmBOQUAoZ48U9LOHb/rrrvZJ0TQD2tNhHoYBwxvt3360mbQV+4QPkzhYcIiWW65tDqmpQQsajxkCes2uc7mK4E7N+wEBRlicpdqUodm92l+tpFCHjySquCWNmA4fsopp7zilS+3ZCsFHZtATBraRuL0j5mz0lddJA7migT9PkzWeO39x93kVeSOkRbM1RoSvPWtb7WZJzjvzTqc2GgxnRp5Wp/r8DWtE084wUfWnHUC3D5EIlEvSEap6qqYm3bilXzyX6pO/W+9z4yvXmNW1cfUHPbMH/jr4psB2uOpOkCW6p5Vl6uHXrQBiZDNflOn8Ttwr1ix0hB+zpy5MnqCe2ZuYM2anv/+7++UFxATyUD2xg2mimB69qzZmXC65JJ6yyrpEx8pyEgsqUwdyuJxq8ZSZpYwyeT8n/5U27ZKHhWQbVpexiJJd6mLZUx0mGumJEkoRWQTANSgn0/y4he/+NWvedUjDziA5bTcpjgSlsE3Nxy2xgP5zW+v8dO3yBjW5GfWGSsiStwOEFiNVFq5C9OsmMdNI9pA5gOF++6zr+cSTkYakmhG+mx6Tp+RBNXW7vQJEhEnO56rD6PYpmdwbdoc5lhrV2Wpu6dCJUyseErKVtnSjAZKZPPmzV29es0Vl13+1a9+1Rs0nmVgWGViTUXm4BGhxKNcpKSQuPxWeZDiKOcRffuSJQ/6XgzByZC6jjz8d121Kn0+9d8+8IGw38GMdMp2bf0QVc5CTTi45OeX/McZZ6gL6BbmOaSyCSE0EToiTHIoMpQZmunI5rDnPOc5RikmZuUJsRRS8MfczJg+46KLLv7iF79oesCaAzr6tZJnyEj0hLUxqJwOjrNigIgvIlhNM04zU0yb+pYh6Qx1c7SYrtImrN6f7e3ca4tYTpzQW5nMZiNl8BUS6IyQrekcix2C08msdTHK+n/IJfb0T1vb/3zvPG+M3nX7HYRL4oFdmsjGP23qDVWVopPTkEc89KE52Spo4lmPObWzy9dX3UKhZPbzgQfvp8L/94pX0lZy5OsLDU2qqLe+4xMDIAwHz9i2mzz9iI4kl0jiDqnxCQfTQUTtSGWdeFox6erdYlBYQ2FKfjYwjRIJuMvTmD5jqvbvO2l77bVXzNzHU+aGhchW6KTIpvbly5Z/73vfY7x0y75oWBNdtuiJx/zmWERQSE+krjW9BaweCDI9FLT9DvO9WGQS2rxwUEjER2dTxhLTwU1czfwDLssRNoIQVYAlWLO6Rz3TrfZ2b8foJWOd28Ym4rVcne+k0wXzk+kz8wYr5//oxz5wzY1jgONx+/fJqLOs8uRS0bQBKRQQV9o15GdIZk5LXw6vSi34XLY82e9nPO3pCT31I1rcah07rZpCDRxRzbwgwkzcevttfK0bc9Am+QzJZIZl6Rhg+t/TJEYXIkShn6QU7oTj65/29Kce8IjkaRjJQ19IL+UE+6yKXHLqCkKhZrl1Bg6i1PU5GNbpP7TjE900i7IH7azEUsyGxVSgdIcPgvKGDevoHYiNwZ74pJMsgiLe0CeMRv7jhWlcqphAGdgNEIdcGq78sZwhTYKmz4Z01TodqvGXDlPNRPRQdriz2Ww/mvPnbU95pOYaCohIWlCod7IedEvRUpJF9zvrO/IHG44J9VWk/R+WPvksW3rExE1qX1s4YCZYck0Mc6DbNjEKhit25DLJAvtKdMAFOlFNLVP+jI8+K+GlMuQA94Bl4VAnZvXR6OVhD9sPVj1FlLxnNlZZ5ZESqeIsc5c2RdEFga1YuYofwuc0Xahb9uZvWJOiGuyxR0q0G9nOH67z3nvvPWNGWhvibMgmRLuVou7J6R9pGDNM4wNb/dkovWe5FTldWQFtvZoeKSHOkBpZ02fkIWhyt3uEzf71r34rHn52oSDC90C5lj+fToYBxom1pngcQm01vzZDr5xvHqT909NnppdrCLeqv2r+iY/b4GX6/0/XXwc0LLKfufF3MnWcMZXJTTUN77RwzItgUi0HVod51jVrnAJwyCGH2A3/0Ic+hNJkdgQzNA8I5aiyJlUlSMb+POuaTlFO73P4kuImcwarVq3mjbBB0Q+4xWbjyljcBiGuc1F6UDAS08yiB4iyXEcj/14EFHJbJNKvSVBWb0tNMu8bnChywQUX2ETGbtGuEEqNXDCJYAQpCabtneGCVxXjljykL0LWM6ZO232Ph+oT9xQeuocZSd6RFzGJPhNJ1wh9dZ8aSYdNWJlaXJWCsngUJw55bJWUCLGHIXYRSSkaXbVyjSkt/TjP2CHCNl25QiEngeJVE8FAbdBPm70rISqeepvKxIicGrYG4Lr7rjs/+YlPOuKoI1Uttdx6ANkSgufyc7ORqF1ki9FqxKORBDqRT60g7xbMVspcamKyit1godfIbbbgQTK0Cqb7shemtFfi/THNSNvkcOddd1500UV8knBIWOLU4uu9mDyheMTTuwv1bqREpMsDKCK64+hSWBc/jSm5p0yLq/ErwyabFeZZs2cAhwYQ3b2c0Y3QhLKqlN2qhrjrypraD6RcBemj0+nld92lZRpDc5EfWLJUIgQjFc0g2POgAM3So15+oh8NNQpKPVIMR7LxDmZkEwn48jde+8+vctgNeQqxGBzPbgbTg8Mt6CMigmGrkimeW1r0G0E5TfcmJhJioz1Hnq0f04OJrj+mIclyT9JxW5pgMW94/vnnm6KGD4kAxy2hY4IOcfs8qkiEUHbEI4N4RNwKx9SBTDREK9LRQVOcUkAccZ2pq9GVUuB72vS8XbZGvk16PWqAu8aDPB9EQAqODaokakLLc0Qp4ppijGW7vRJu0SjPSLil3AQUG5VqG2QSYT8L26UgEcwLkRIZSjaPSMfAE0443j4wcbeqNnUzmA6iTV+r+qpRzowFc9W7Wz+mk6yT5esTGqQf96KzhgM/AwSsF5vnUHFuiZVF0Alvu4bRynxtUTy4iIe+Iw5/zDCy3WnROAWoQlkprhHHT1hKifKLJ9Cb4xk8KAIp9zPJ9A6sJiFRQA2gXQO+Pi4SOVOts4nVAGTrnJpm91GI64BFYQMzgjzaXjUPPpXi1kN22fnjH/+4spRSxdZ4YLr0YIntzM3fGKb7Y7mqk8HjgcWiaQhlv7mhLLfR5E033aQrB+vuaTMgg5kszolH4qnAmXjMdkdRAzrfDVxARk5hArWN0FpDlsafUSKeU9lZw+nf5GnWoKwRlWfwI6ef7qpCxAFXq4NO1cG5q5Ro22pngcmr78cdd9w3v/lNp73JKUOZ30RqWueUj33sY7KJjwzTVXQWVhsiJU+pV0OGcf3Z2yOPspjRcs8IkUSzy1G9zNKZH2HbROiJ7hftvcifsy8sQ5o0MAN44003h2ksCI6nAAJcxMGCD+2uivgpFJri1dqVPGER81gW8mIMkJ/c3CUVoaa1clLuUlYpXWLKlYHrLj7d0oq41yoown5LwTbnZ+HChT4TZY7MLvDtt5/vQaPn+HAWJh0kXji6/4ElJk/MqZUFpnJrPCKlXv2JY36Iu/3zN58yNpiuaqJPN9M8I8NH84C06Tt15W1J2RS/Zw5pQvf6G6ZOTwvsnsItrFR5JlxY2dCTNr+Lh7ir7qbUgsDU+PIsuMx58B53yv0B+eqbGL1y37T4xTaXEJyEecYw5lXKrIi4OlqFdRLVPosWWbkweO3urqmS6y5uXIsOCp4KOx31db3l1r8e9ZjHZBOSGiKTkNmpFFw4IKtKPDyHuA6t5VqeyrP9o3jrnzgmKWOD6TFhZcREAoLxuPmjiOh2ocEtFi7WJqRDQ0BEPJ5ivC1kRAOYM3OWxAT33MCqZINm9Roqqbsf1TtNxREv+QK7DcVJFHDLo8Ceu4YHXv2w1L/vvvs6K1CcuY1VWMT89fQkpzkogzvQq7vqMMmlODTtd5edh+1rlniIkcmY4KuhCqWCExwZG0yTVC/flWhv4njG+pSeTEsNLjE/2t3VrZsGcUaV4SqMsMpg8aY3nwbx3G4uyl8WLzYzIICCAB8BWbMc1ZaQjL094mvXerGZFuseSCGcrGPvj9x4/JQzqEW7imYTo/7kHuTOAc4cX4Cy/ErX3vgVe+25B/f3wIMPyn7F9ioSs3u5iILV9KtrKm1ucuWAzZ0322zM8mX5Ayh5TS56AA/wxxRELCGouDbwnImnS5+alNRBbgxGpPrcBMTHBtMTwGiTRRRAl/zWNcIMU2cRugiYAsfChQuBjDOaUNvRwYYZX8Z2WdOCd9x2G4g7YwDEZQA+uBT3iEjPmvQ5soiX4kQCoyVFWRE0LUTEXVPQ9vKuZY1EIjNsOnz3XXfVhCxqxqS4/cTbzZuvCI6QJ0TSczlUq1PKKhFLKlrCgw/cqG2UdRmP+Ml7MXsYnJf8W1Nka8N09KQ0VFxW+ovhVFGbvWnOARD0zhJh1BVceJa77rSzPw0jHl+1epU5QVOEkG1BhJdiZcRPcynIsnYCs4qCIoI+3ACdaxq6ZrLQk6YnOjp8QpOVBVnvMoCvaezt589nieEPdq0ba2NzZ89J/UBy39OWcUyCO2pSNBU7MPlTscAqPUoc8Go9xTrR9dfdUO6mmRwHe3d1qYJGq1wtKhEfikx5ejJFtjZMFztdcMlIC3RSA0fdGQARphHUwgVnzhNo8hemIZXuIQnIBIArLaQs9Mgfnm6soYTDEJqPRhJxAFUEapCNlJ+ukO2nDGF0g4HgHI6xwYS72s8VRBLn9W3fHuz1xOP2QFd88rZTA0v9Ty9sPY5hmLaFqHfYOxCFyZu2tWGaJoqpFocMgGZTwYiC+9i2KU6U65aZwmFIqL0A4t3p9AZxagOhV7qvR9u6ptQkxmROmTZ9xrTp8+bMjdbSQD8Sg0igELnI4xo+f+w+i2Ki2SQ2+DMWkvqu4tRYyVyVeGKv8qO0Z8mI2JWu7hZfrEFGRVy1LoncKvGw0OHTlwxbQWQrxHRRrQhIJbNX8UFDZ9IFi3MgkRCWoJ1Cf40mFFaBk3OkR+oheQnZFkYp1VvijLSMSIgEeqoZ6jT6/JsyZE5EBmVpIFb7UGlrswdLn5C4qlTLT30FV6oh89b0cyvEdKgHEIENkJglzkC7j2jVgSgRVmCdyiMzTSfI1YGakFTPXAAdjw+Is5Q/tsulqZWa/av17JV+v8ZYvZReGNXLKt1BDYR9gTtg0b1E+sW4TJxmnsaU7uTDhFU21IVpvkdy1kuF+z07qRNiJDOpqzAw82GtYQ12hQJoucWTV2rGtyudfVieD6PoWs0cd/unSI/8xaZGisTBQilo0EjFoPbPg2wklkj/PCVFxdlpA4boPUp6inR0GOb6tzTXPncn/4+t0E5TVQAalGHX9ujU4fZCNykTRs3XmoKgweQY5BnchG+38jXmBJLi60gKXVd/BtAjfy09o64OvfREaQwyVPMEtQGv+An+q3eb8Xob8vD12WkmWfVt9SzUsGHqw3E/5tcD1pis8VYyTeZIb1Uncy368A4QCdalQ+9zM/0Y4lbJGzoeWtND3y2kRJrPGR5C9dkRxxVqxjAButIso+5maaw0FcrVDCVx8ka2QkxTRoJ1RZEjUE/C1mYp5LHl0MSxMUpOhqY/2N3ULXWkT3fqrERrzn3ulPjTnGxT7IM9O9nTt05Mj14rW4evyaVu8KfDzfAeTdjpZrqs0Qtzgils5Zgu0KwaS4o0E+JqsnYwcSczPdi9kp4zVSmXOynCVFad+D73xv2HJSEVTHtKcyguDYNthkewruTOoMyPO4PjWMDWjGkDRJKjPLZqXA1SCyIDS0KarKyMDgPERMEhsQ4VsPJTGEeITTjprRnTyRi31abtxlGw/exxLWEQU98v+7iwBtAWD21o4T1nePdeGGmS4VJHwW6MCwdbjujWielwOezjIVj9b/WlVylbmVnqDx7NJiRgYbwBsuoO02GnQw5bnzQm6/x07NBoUFhot/jQd99zt43RXnLhe1TPDNAd237pE9bn/eD7v//TH+3qdGbNwoULF2y3nU7YXiZk17etjybBMa2eR1gQ0Ft0PzPXL6EP6oa+W51jVlYpRQ1gESEmVsRPBtjPlavWLF68mNE15RyHKEg0764ZO2z3nvvvs6clFZ9OoIqlQ4DXrDtWr1pLhphJf1uXqZ6smKYXmgDfOOIthkThQDsT0Yn2F154odO37BWWaCzY0ZlVm/RZC7FE7GgYv6HHUTWHHHjQk570pIftt48tEl4Gd+aVW4Gk+kO1fycGBNVSsBFoDn5sQvIGsdfj71/yoIOl3Yo5uxj5qW+0h+7p00ImqSnWGlN6aQ0RWwaq9BsqOKl/TmJMk3va7e7jMmvXhNdIoz7H6Ox0SKUw6tT52qxsPDSgj+Wp2EINENbbfvzjH2sJvknsCLlHH3EYxTOH5WWwUPOWwkE6E7kznfWhuf7oRz+65ppr0kYOIe1j7WKV1T0YxmfgHqtOyiwM+wxwVIH195zpvC1boyh9PK6TG9MhkWSGOzqc8PnV+nnV5mUTjvNeJWtmVDiY7KCZ1uX0otSUqcmUOULACSE+Qe2LvXsu3DNWJQd7fJzSi6dR6OPQ0SXOxnXiFPjyLowTmGeYZnfVUS2iLn6KqLK7lsTZY/IpdERkSHCvf02remvriE9iTCe/2YcF8itVzpZmZU1dpdmrPH/HBlOe4HSWpMgh1YVIyRP7fphDjvhLX/rSJzzhCeCe6SSzDVtDUhqbm1FKOa/eEWqf/exnnaLGObbcHXC02zDxXH9JpxQchjntmbYlMB8MErdiKZFPbXe474TywpctXRG7q52v22/7YKE3+SJD7Yto5do4co7yQM0X4j7ykY8wrrG+AHaRjnl3owpSaHjo6iTUZpczHnfOpxT7jB0S8qpXvUoLMcxK14kKWI8T832x08lJXCNuUqla2eTvHfcqR3iWR0oZE5dHJEYdXbUZpt0gUtV8JkF/tg3TVTFOdDxwGu9QeR/WF0AcnxibdZK5zRY3eKK8whwfsui7JFYj5W7t/er85Qdn1xllHnXUUW95y1umdaejfifGTpcdsOece+7nPvc5HUUyqPUZj8JqmrZITTiBeLMhnlI7+QkKTcvjXJRXvvKVT3jCSWVHiN6vKXKbLW/LZZh8drrg9E/X/ekDH/iACaxZc+YYMNETOxqeRsiTFkVClzDdpJBp3SMb8qc3eKbAxFo7rfmd73ynF7eaBFCTZQ2WLTB95lln+cisQ8j5xKm51gd/IlE1ESPhEo/0Bg79rGaIFpsfzOZ840aie/WrX/3Uk58sMUJ1PrGeNpn+He13tyagrlQSekpz0rk8FuvOu+9+93vec/+SJT7DGkN+Jidlg910qHHvX7tTbPL26CZZjR15LDLA+HCY802ndHbd+Jeb7rjzrmOPOcakYbqVWSqMNUl56Gz12jlGLH2A4qyzzv7eed/zNSBDgfQ1x9oX3FODS6V749C0TBoO8qodZzPV4al5EsSnJ/Ql3gbHJhc6mWV/SW6eyRbYw+kvpaSd475JeeXVV3VP7X7Ywx9ubt7DbvlLw5XJGfp4Y61ZhWJpDOeTIvKrK2eccYZVBsN/NqywXTVIJXHEkWhIHoe2BTvtePHFF3/mc5+ncm6PWwxnyTDiIvozDLGK+OY3v/Xtb39b7WQII10tK57iPDjgRkv2k63VsPkS3G4hndG/2sdVap81619KMCw9gokRY9DLLrsMNbckjrhGrfDgxA16RlPb0KhXqcON9j1Wx5Z6iYO++RvRUyf6Y+cKoqlQ2nVVroLMAZv5PvjAA5xP5zQP0yOjqVE8W0Vqoeab01/48pfmbb+dFGcZbLCqtGG9772WDPFU1H3psmXAjTdbpb2ASBqY9tLhAw8stYa6asVKVUhHedRD+B5lBJmLSAieNmP6J/7zkwsXLtxt193GTor1Uif238mB6ZBJWqae0vnba35rmpaeQrXJqGR1+zmGBiaIxzWOUtA/sIU+PZ+Oops9Z2zVVAzjkiUPfOpTn1KuTilNP+dFUPFoXVFocg/yJztM9Tz+iCN8VNI6Ebc7JJB8JqLY2G6t0eeCfvGLX1x99dUFxJGnyrwUPxWk3zvzzDPf9a53OYskS7W3FVXzt358EvjTRYg8RAcjffRjH7v7nnuSQTI+Kp5iPRMPsR4d1b/Vya3o371rro/2tW3lHvqoR1WpVwFXTW8yXvoZyP3SF75k0Xv7BTswwwoSasTzdwL8xIxbUG7i/DWvec1TnvxkH+aY4Tsv6b0WXKegXJe5s2fvscdDjznmsUceecSyZQ9e/6fr4/sTKHDEI1vKmY8R1BkwEzfecIMp8IMeeWAyE7mdlWxN1qUVso0NAsa1JpQqRBE+3fLHP/4xOlOJReIlw1hx0kBQQZGio/eRDT4rI1rKKmyUlOYjqRa5owFos+zWvVnc6uZmpBhmRbhy4r3yzcd4xzveYbLC6WGNfObjyCT6GpBguMnEO8n3jW847fQ3vxmFOGYtqAWTwbzmyv/mw+gDLfFM3gFiElfz0t9SOQldoCZrEEZOEQ9m4EDELYljzl4ha9YgFuGkMHJmD7/7vfN8Sn1MSkzVyefAm+tQu3K0H0Si727KkIOi3TWr+OEPf9hZvVF67/yOvIRh4dABUXka3e9OX+Z1NuC6dFbq8cc/7oyPfOQhu+9uBIlmaZNxwmr4OVE7jbYUPSZ1nGAikwDTJJJ02t7m4Pubbr65tnmyLqd0J2u9njBm//YnG1AwY33BBRfcc+89Y1ZSXsy/7vrrDHztVAEvrgV4Ka4UwcSa3HDy9Nve9jaGHOKllLvVSMZ/OiZPiHSkHHvg1157LfT47rvttn5t7QDBUkTkV66OyD6wpcuWlserxCdFfGC5tA7rIVmAFmx4oAMTDhbGcw+DeZ2yTwRTb7r6C432vw63RmGb41p9lj/rwH4HnNrnxA92SoaBYzXDsOIopL/8LYtLf/7zFcuWpcGcrYD1TVdRfbXmjTj+9M1vfnP4XQnx+bwHt0qoFu2zAv7SPHT9L8z9brvt8vrXv66zi6A0G9PYzjZNfyE9/07tnHrXnfdc/LOfm52vOXyZLpFW6bdyvNUxHdaI/izm/e4PfwhAb0H5AhM7KtjkRK9+CqNUsDryBwwV+s8PxlBYs5HnH//xH3faaadSdx4LNI+gaJMkL37xi7kxpTUWOiJhDjCDMl+80C95SkrLRlod0wQHQPRnjyXFU62wBeUbkOJ++BYja82k4meU3bQW67tBd5nMye+kFNSqZtSUS+AD3ccec6yCImXEeMok223M2muvvTjZypKCbClUxOYZk4A33bSYpEdc0BZ8cBJgmpQpFYY4lIbnxbpsKalhBgh899sHwDW2EfNTYGTse+3vf4+s2kmsojbstFb93Oc+V339LLUuj5eUZiLmAVFDx3sPhfNqoUrHCfNhEiZDvddUN0O/FfJMAkwTk6UWW/Bogj7YxZGpc0zEzT3lbAAfcPgwSji1WBou8YBRVISD7jWzRMTcR52UW8rqWb/OCylelzzowIO0H6FkiBLD7jZ/NQQkRt3LkUceueeee4IvOqUVBXFXjZbAt9np4aq1qfxJsyaeNqynWmDys6nHxjMTqAm4iuO5REbAVcAorowiqz+lK63AF8bjFmxpxkcffTRAl1sRiQwNiU3+RM2KDMc63uAq7URFBJQ1WhvT2ekmCbZUtmEbmInnnsSJnvPKwJD4xDMwYIk4sfgMHKMcI7L0tmirHQuqoGoF057PjZukM6jBw2hw3FALrcXbAOhLF6/eVQpR33nnndVzIqsZWjw+CTBNzUYznOkG0W9ByQYEaqc4j8hOF+a1Ci1WHcEIfIvJlIG/C17Go95p780/ulatIAE1V1/38qqbiK6gSp+cNdSwI5G53J0Ukd4xR2uyS6mCiSdzeQSdXL0YRbWKve51RkcsQL6HRhtHRJsnRod7Y2o8VXbd+hmz58ycZjuHhFRn0kj2e9SBMK3dmO1O6/CsddoDkiXbwdPLLlB7h/XHahsbdZkTRGAS2GmSoAA2jDq3rKkOT7pohmUFNT8xVhKbjPS3fzDbELzLYAwHdupuj5G7UVxDtmH9DFajdMIUgdoA7ghqMayiJyzzJMA0iVOqDfKE3lJyjyWS/uhsRnnVitABIqludViXSCEV+cNUl8QRRILboBaYRoTJGAGpln1kEmCa7OzxAOvWEWJgwuQAlkaG6Ya6VF+jLLdQ1p4N1HgmJXGUkSq3OgE/1WUwO13NPMpyJ/LxyYHp2bNm2+1AtVt86gMCQDkNqjo6fK48VDUy3Zen5sybN33mTAtLlIF+CTIoy4yhT+gqSKGj9z3AFx0WWrBmZCAYP6UHP3EFd70Qh3sisThWZU0OTKvtrrvuStAUUKAwViJonk4aptnymqcjYMJH7XNCMnXNEyk5y1OaK+yqXdjLkoFLIA87fcstt0Cz9syrHiWs8a8sBQmLFy8mTz8lCqXcGLrYIWg7dUmcRJFJgGlyt3psfwIFUzwwFTRMvKAVTf1gbVOEvfkikFcFxHBZglGvYNmclM5Vqi8iVokgbr9Uel89b8Sr3hpBPPhHyp+thZjvzz+Bs99OtNGKRlDEFn+k1TENwSTr2Fxbh83UUkDYlS0lOJgQNC0oNL/b3ZWOS5UyYn5YeivVeiHNQ2XRKS0kIqaQf//733tZUE7G1XXEZQVxkNVCrrn2GhunDFT8JNUqzXDwFi5cCPfV9MkSb3VMB1yIltbLVjLqr8o38hQoVG+NJt6A1KBvphwC4ODQQw4B6BEjLHZOYy+bzE3eRYckkJWSjiMxOZ2hK4UnYJXRK1VyKte1tus6770uFWyofjVPNZ4MdN5V8sMf/lBhnJtaQ0qvMtqTnf5sRp89c87DH/aIvsuLpahWj0wOTFPY1O6p8cIS09KwzzjU2QDBUQoetVB2oRP0IcxQdVp3twPH3Bq9JdMqENl30SLH4WmrAeUoVL3w4KoV/exnP7v5lrSLa7BWVK1+CKRwXo3w4mwIs+fu8ssv94ic1QcjJ8fD8HfRokUDuUJVYi0ab3VMExu5x2LHscceayRuo0/Y6f7KGEMZD6hs9KFK6XYzOxHBiG0whA2LEzu0YGj//fdvmLNTQU4OUpqxt3odnBc/G4n33Wk0GOfR/PD/4NIHHbfA5HPfyz6P3rVJS+UbNhx62GFz58wenZvTyOaE/Z4EmA7sQg8X9tGPfnTPmtqMHuU1iKl/SkOG0f9kOIUTTjgBKYyNSYkIGjAcc8wxDewhDnmugGhIaqTogO2SZ7AuIsRVXbUJJqP5iQO042x0OMot1ErE47pBzIxijFCIbZlIq2M69BGy4Wh6QUN84/rGaa/IEOocQ0HqH5JnkN+yxgkLrV8++OCD9RhjWCLXomddz2Mf8xgeiN0XEKwvYpKVa0Bs9m5NfuvRzNo555zzla98BUfg2NtFNLyNks22ZwPWMieTnDffiX/iE59w+LxFWSl070+79Oen3oD7vmLlykc+8pH77bdvrmCj1ciJrX5pdUxTTRGh0fpeCxd6QSP2QFZvlTxjHlEKTNA35IkD04te8EKlVBvbaAqFM0hCXDj55JNhOpntrq6onWtEJGKDz81Un/WZs2I06dkB2KhLLB4EfZTlJLS3vf1tzg8JQEtsqIWigxo23IpGNZqqbalnWx3TVbmb86KbF7zgBc5qiU45pBbKGw8JJlOXzZ7iwMjewKc86ckHHnjgmJQVAApzqwoOAj7+ccchbmpFWVKEKMjPSIEziPzmN7/5+te/3iddNHKdSOKxOgeib8lvu3lHJvxvcrviyisc2uSQsfiOggxVASpFWdotWPM6DjvsUUrWQSE7JjWdYCIDNfQJZqGJ4kK4qcPNkwBX//rX733v+2OiOpCBBq2UeBMkh5GFSUMZ1Hx17t/+7QM2ylnHNnsAjgBVkDcMihmFDfmdLKNG1/7uD29605t4tEAsg3JrR91trG1x5pm4pXW5xQV6/OMfb7QK6Dzy0qMVJDpR6brrrjNtZ3mFAw21ZOhxTpQ4WPfy0JEcnnmz5/jowrz5c3Dilqr1jh17s7Z6bLxwMB71huwIiJ/33e/7hotpECmBKtqS7pCPiAQDIwM6mjE/TKPiwBUIe9/73rf33nuLS49Cx7ya6ujU1s9+9rMGhWleIkOQuXVYR5SY+MlWXMQ8SUfbRnMmFqT23HNPj1jQls189uKbbrn9rju9bO+tMC1Es4yW2X+uUH4Eyc3rNm9505sNf333Q+ao2mTE9CRb/KQAB2cR9zOf+QyvTn3nO9/hYlI8BReVV3EmvfqzyXgi1Z72DHV1O6t8HQBDzxvf+EaADmWHI5syCcU8Nkl9yGwYftGLXmSFz0hu7vz58krJhdaKwVupFLB2drTV3mDPNU3NLbvCbQ6s2eSs9WmAHvJxDRGV8v3UWmKo8ODyZc95znNOOulEe/UKoGsVLA9MkkivgFqf4bDTgenkRG7a+LH/7xPnnXdeMml5EzCN+iLgGFUktRPdPCjwOvivHE3K5psm+hlADRAZk3LVi0vDDXjDG95w3Z//HLsRcaIt96evvoaO0vHpWuCe0ts6nP/oJMhID1Z7M+SWnhaPtIr8zZqjjz1ao3VKr+P2NvB3iis/tk22fx3GIWUyndVLEWQdxiPWw4444kiYM1oCNneSLvsZ5gyIYdtSX6ij7zWrVzNjp59+ekweI6WIpIXcLRTFj6FeYsjIWT/iiCN+/4c/+HgpNnJB2QuK0uvl4Ye/zfeN70nrUuSUpIdZt55/vk77CMnUn0j/yhPTfNDMyb777rudK3n6W0+f7k2iGB5UpDUZTfVkstNVxcSokf4o6IKfXmTalTVl1UA8eQu5y67mHyzu8cgcpMRjELZ2/VpeqYM12Ms999hjwMfHw9es1ss7vB/84AcNiH0DYENP6n+0KHyKqGacR5pGm/VAl/Wo1Nz28m/z+r3p+f1ZIkJKY+BDG2iedtpp06bnzViZQKzaxiPjUcfCzDhFJh+mA3yhe0Lx056cG2+86eyzz/bVCIbH9j3pOlbzVvxF6hcCu/2FGBAJ6ysO0B4xlTt91nSHlv/f//t/EYyevf+z46HvUi/FsZErVq741Kc/feGFF3ZPSbtccMgtwaTqpO9SpzAwpjekxl6DchXTKEjX+djoJ2Ji1Od6RdKHnPwXDcZ8Tv3Z8ahjZnscL5MK07GxIS+b+cp9lkqyRmkw19m1atUaB5/65Iod9DpcWHQNyA4hv5IHlCnSHJnMVgr//qUvOeARB6QdHcXfqFAJZIyHvquYVq8E37b2Cy684LNnf57Z1lw1P000eMnTfE4lNTtTY04VosqgG5yna2XCUQatYnXPWvscHSr5mKOO3LBug4OZeklUqik6HnXsW8LY/2p1TAd6avWuY1pi/YvweWyUFJImchmXpUuXQbbPR9hzTHm6V+YtzPCAwkNJNgGAjDVtRrNOaVcJuwXl/FpPpXnoXEQDhfHQdxXTCl3bs5ZNVe49d9+nI7Llg4sVx/Wm2rLS6aRd/9RBXWeRgOrRtHm1xJ27YI39pJNO+rsXvmC7uXPY5fy3KYa+JVuJjEcdC/FxirQ6podbbUdTA6KdbtYanHxujOVUO5s0uCIwihp8h4MRcT/pmN9sW5zddgsXLpTOeLeaLjGPq+v+fL1FREevm7+DdRVxFGp0NSpiJQjQWfEwBK4pMa8p8qbkNZ1/1BFHarQWYq0ymuKQQVDlrSlshZimYxaOktggCjauB+vbb7+dB2nYBxzUTMHemDL28p7BjjvuyEJDgwfljx6fvltKzdpkMtjc6I0bnPp18cUX+2qCYxpXrl6tRtjWI1WxKX/wr16gbGb9sY99rDcPdlqwo+onb62+paSlqjkmzGxtmCaUZJnytx/E+dkppTacShKj/mKZoCFBOcMXVkTi+4uaRG9vnR7a8oFPIqTeo73dJJ1P665etdKmah0RZEN5OnRv+XIzmnjlivneofVFXyeyQdcqo5Wp6VPTEFN9o9GWKkVi+bkVRLY2TNOQ4PWkpFpfNFy/zk82yc+Y40v2KadLgfi0DSg7JP9/O1fXwzAIAh/2///zjl01ZJGuWrMBoy81+DEOToSuKYWQsC70FqfBaaEzv4jwkDIR7MTmhBD6S1YsO/n4G1/KCxEfFwajl4hIaGxmnFStP9s9G6eX/QOvgyXL0785Eary56Tx9vJ00+NVNZuIoiBtaObuxek5e/kZzVCN2K0zq64epMMrN5sJuTg9dL1TIYnK02TLwbJlEW/G0rWyN90W9elHM+brdl9uKOy91iw94FdtsFmnRwTyEc6JtinDdsXpE49XV0gLJIzTIf1wUWkkH0aifHGBfxiW9oFOTufpzCMnwg2oKk5vMGIt4coCxWlX7phQptIQy1jFacsyJY9qgcqno3rOSq31M+yo2O7p/QRB5P8ZLGy5OQAAAABJRU5ErkJggg==;" parent="1" vertex="1">
          <mxGeometry x="548.66" y="396.38" width="92.18" height="83" as="geometry" />
        </mxCell>
        <mxCell id="WeLG5edQ8tTJFwp3-dpX-62" value="LLMs" style="text;html=1;align=center;verticalAlign=middle;resizable=0;points=[];autosize=1;strokeColor=none;fillColor=none;" parent="1" vertex="1">
          <mxGeometry x="572.75" y="468.88" width="50" height="30" as="geometry" />
        </mxCell>
        <mxCell id="WeLG5edQ8tTJFwp3-dpX-63" value="" style="html=1;shadow=0;dashed=0;align=center;verticalAlign=middle;shape=mxgraph.arrows2.arrow;dy=0.63;dx=16;notch=0;fillColor=#dae8fc;strokeColor=#6c8ebf;rotation=90;" parent="1" vertex="1">
          <mxGeometry x="548.62" y="336.13" width="86.26" height="20" as="geometry" />
        </mxCell>
        <mxCell id="WeLG5edQ8tTJFwp3-dpX-65" value="" style="shape=image;verticalLabelPosition=bottom;labelBackgroundColor=default;verticalAlign=top;aspect=fixed;imageAspect=0;image=https://www.logosc.cn/uploads/icon/2019/04/28//f4d1fd51-0ae8-4159-934c-7830f535f931.png;shadow=0;imageBackground=default;" parent="1" vertex="1">
          <mxGeometry x="420.25" y="385.38" width="22.67" height="20" as="geometry" />
        </mxCell>
        <mxCell id="WeLG5edQ8tTJFwp3-dpX-66" value="" style="html=1;shadow=0;dashed=0;align=center;verticalAlign=middle;shape=mxgraph.arrows2.arrow;dy=0.63;dx=16;notch=0;fillColor=#dae8fc;strokeColor=#6c8ebf;rotation=-180;" parent="1" vertex="1">
          <mxGeometry x="489.75" y="430.88" width="50" height="20" as="geometry" />
        </mxCell>
        <mxCell id="WeLG5edQ8tTJFwp3-dpX-67" value="&lt;span style=&quot;color: rgb(0, 0, 0); font-family: Helvetica; font-size: 12px; font-style: normal; font-variant-ligatures: normal; font-variant-caps: normal; font-weight: 400; letter-spacing: normal; orphans: 2; text-align: center; text-indent: 0px; text-transform: none; widows: 2; word-spacing: 0px; -webkit-text-stroke-width: 0px; white-space: normal; background-color: rgb(251, 251, 251); text-decoration-thickness: initial; text-decoration-style: initial; text-decoration-color: initial; display: inline !important; float: none;&quot;&gt;Response Selection&lt;/span&gt;" style="text;whiteSpace=wrap;html=1;" parent="1" vertex="1">
          <mxGeometry x="380.25" y="466.38" width="110" height="30" as="geometry" />
        </mxCell>
        <mxCell id="WeLG5edQ8tTJFwp3-dpX-77" value="" style="shape=image;verticalLabelPosition=bottom;labelBackgroundColor=default;verticalAlign=top;aspect=fixed;imageAspect=0;image=https://cn.deepcool.com/public/new/Design/L2Banner/icon08.svg;" parent="1" vertex="1">
          <mxGeometry x="397.25" y="402.38" width="70" height="70" as="geometry" />
        </mxCell>
        <mxCell id="WeLG5edQ8tTJFwp3-dpX-78" value="" style="html=1;shadow=0;dashed=0;align=center;verticalAlign=middle;shape=mxgraph.arrows2.arrow;dy=0.63;dx=16;notch=0;fillColor=#dae8fc;strokeColor=#6c8ebf;rotation=-180;" parent="1" vertex="1">
          <mxGeometry x="326.25" y="430.88" width="50" height="20" as="geometry" />
        </mxCell>
        <mxCell id="WeLG5edQ8tTJFwp3-dpX-88" value="" style="group" parent="1" vertex="1" connectable="0">
          <mxGeometry x="200" y="414.38" width="100" height="40" as="geometry" />
        </mxCell>
        <mxCell id="WeLG5edQ8tTJFwp3-dpX-89" value="" style="rounded=0;whiteSpace=wrap;html=1;dashed=1;" parent="WeLG5edQ8tTJFwp3-dpX-88" vertex="1">
          <mxGeometry width="100" height="40" as="geometry" />
        </mxCell>
        <mxCell id="WeLG5edQ8tTJFwp3-dpX-90" value="" style="group" parent="WeLG5edQ8tTJFwp3-dpX-88" vertex="1" connectable="0">
          <mxGeometry x="10" y="10" width="80" height="25" as="geometry" />
        </mxCell>
        <mxCell id="WeLG5edQ8tTJFwp3-dpX-91" value="" style="shape=datastore;whiteSpace=wrap;html=1;strokeColor=#CDA2BE;" parent="WeLG5edQ8tTJFwp3-dpX-90" vertex="1">
          <mxGeometry width="20" height="25" as="geometry" />
        </mxCell>
        <mxCell id="WeLG5edQ8tTJFwp3-dpX-92" value="" style="shape=datastore;whiteSpace=wrap;html=1;strokeColor=#CDA2BE;" parent="WeLG5edQ8tTJFwp3-dpX-90" vertex="1">
          <mxGeometry x="30" width="20" height="25" as="geometry" />
        </mxCell>
        <mxCell id="WeLG5edQ8tTJFwp3-dpX-93" value="" style="shape=datastore;whiteSpace=wrap;html=1;strokeColor=#CDA2BE;" parent="WeLG5edQ8tTJFwp3-dpX-90" vertex="1">
          <mxGeometry x="60" width="20" height="25" as="geometry" />
        </mxCell>
        <mxCell id="WeLG5edQ8tTJFwp3-dpX-98" value="&lt;span style=&quot;color: rgb(0, 0, 0); font-family: Helvetica; font-size: 12px; font-style: normal; font-variant-ligatures: normal; font-variant-caps: normal; font-weight: 400; letter-spacing: normal; orphans: 2; text-align: center; text-indent: 0px; text-transform: none; widows: 2; word-spacing: 0px; -webkit-text-stroke-width: 0px; white-space: normal; background-color: rgb(251, 251, 251); text-decoration-thickness: initial; text-decoration-style: initial; text-decoration-color: initial; display: inline !important; float: none;&quot;&gt;Synthetic Multi-turn Dialogue Prompts&lt;/span&gt;" style="text;whiteSpace=wrap;html=1;" parent="1" vertex="1">
          <mxGeometry x="539.75" y="263" width="110" height="40" as="geometry" />
        </mxCell>
        <mxCell id="WeLG5edQ8tTJFwp3-dpX-99" value="&lt;span style=&quot;color: rgb(0, 0, 0); font-family: Helvetica; font-size: 12px; font-style: normal; font-variant-ligatures: normal; font-variant-caps: normal; font-weight: 400; letter-spacing: normal; orphans: 2; text-align: center; text-indent: 0px; text-transform: none; widows: 2; word-spacing: 0px; -webkit-text-stroke-width: 0px; white-space: normal; background-color: rgb(251, 251, 251); text-decoration-thickness: initial; text-decoration-style: initial; text-decoration-color: initial; display: inline !important; float: none;&quot;&gt;Synthetic Multi-turn Dialogue SFT Data&lt;/span&gt;" style="text;whiteSpace=wrap;html=1;" parent="1" vertex="1">
          <mxGeometry x="197" y="448.38" width="110" height="40" as="geometry" />
        </mxCell>
        <mxCell id="WeLG5edQ8tTJFwp3-dpX-100" value="Dialogue Response Generator" style="rounded=0;whiteSpace=wrap;html=1;fillColor=#eeeeee;strokeColor=#36393d;" parent="1" vertex="1">
          <mxGeometry x="358.5" y="356.13" width="183" height="20" as="geometry" />
        </mxCell>
        <mxCell id="WeLG5edQ8tTJFwp3-dpX-102" value="" style="group" parent="1" vertex="1" connectable="0">
          <mxGeometry x="-165.32" y="220" width="150" height="74.37" as="geometry" />
        </mxCell>
        <mxCell id="WeLG5edQ8tTJFwp3-dpX-28" value="" style="group" parent="WeLG5edQ8tTJFwp3-dpX-102" vertex="1" connectable="0">
          <mxGeometry x="8" width="100" height="40" as="geometry" />
        </mxCell>
        <mxCell id="WeLG5edQ8tTJFwp3-dpX-25" value="" style="rounded=0;whiteSpace=wrap;html=1;dashed=1;" parent="WeLG5edQ8tTJFwp3-dpX-28" vertex="1">
          <mxGeometry width="100" height="40" as="geometry" />
        </mxCell>
        <mxCell id="WeLG5edQ8tTJFwp3-dpX-27" value="" style="group" parent="WeLG5edQ8tTJFwp3-dpX-28" vertex="1" connectable="0">
          <mxGeometry x="10" y="10" width="80" height="25" as="geometry" />
        </mxCell>
        <mxCell id="WeLG5edQ8tTJFwp3-dpX-1" value="" style="shape=datastore;whiteSpace=wrap;html=1;strokeColor=#7EA6E0;" parent="WeLG5edQ8tTJFwp3-dpX-27" vertex="1">
          <mxGeometry width="20" height="25" as="geometry" />
        </mxCell>
        <mxCell id="WeLG5edQ8tTJFwp3-dpX-23" value="" style="shape=datastore;whiteSpace=wrap;html=1;strokeColor=#7EA6E0;" parent="WeLG5edQ8tTJFwp3-dpX-27" vertex="1">
          <mxGeometry x="30" width="20" height="25" as="geometry" />
        </mxCell>
        <mxCell id="WeLG5edQ8tTJFwp3-dpX-24" value="" style="shape=datastore;whiteSpace=wrap;html=1;strokeColor=#7EA6E0;" parent="WeLG5edQ8tTJFwp3-dpX-27" vertex="1">
          <mxGeometry x="60" width="20" height="25" as="geometry" />
        </mxCell>
        <mxCell id="WeLG5edQ8tTJFwp3-dpX-97" value="&lt;span style=&quot;color: rgb(0, 0, 0); font-family: Helvetica; font-size: 12px; font-style: normal; font-variant-ligatures: normal; font-variant-caps: normal; font-weight: 400; letter-spacing: normal; orphans: 2; text-align: center; text-indent: 0px; text-transform: none; widows: 2; word-spacing: 0px; -webkit-text-stroke-width: 0px; white-space: normal; background-color: rgb(251, 251, 251); text-decoration-thickness: initial; text-decoration-style: initial; text-decoration-color: initial; display: inline !important; float: none;&quot;&gt;Raw Online Datasets&lt;/span&gt;" style="text;whiteSpace=wrap;html=1;" parent="WeLG5edQ8tTJFwp3-dpX-102" vertex="1">
          <mxGeometry y="34.370000000000005" width="150" height="40" as="geometry" />
        </mxCell>
        <mxCell id="WeLG5edQ8tTJFwp3-dpX-106" value="" style="shape=image;verticalLabelPosition=bottom;labelBackgroundColor=default;verticalAlign=top;aspect=fixed;imageAspect=0;image=https://png.pngtree.com/png-clipart/20230409/original/pngtree-data-analysis-line-icon-png-image_9041939.png;" parent="1" vertex="1">
          <mxGeometry x="48.34" y="211.37" width="76" height="76" as="geometry" />
        </mxCell>
        <mxCell id="WeLG5edQ8tTJFwp3-dpX-107" value="" style="shape=image;verticalLabelPosition=bottom;labelBackgroundColor=default;verticalAlign=top;aspect=fixed;imageAspect=0;image=https://www.logosc.cn/uploads/icon/2019/04/28//f4d1fd51-0ae8-4159-934c-7830f535f931.png;shadow=0;imageBackground=default;" parent="1" vertex="1">
          <mxGeometry x="68.33999999999997" y="200" width="22.67" height="20" as="geometry" />
        </mxCell>
        <mxCell id="WeLG5edQ8tTJFwp3-dpX-108" value="QA Behavior Analyst" style="text;whiteSpace=wrap;align=center;" parent="1" vertex="1">
          <mxGeometry x="24.680000000000007" y="268" width="110" height="20" as="geometry" />
        </mxCell>
        <mxCell id="WeLG5edQ8tTJFwp3-dpX-109" value="" style="html=1;shadow=0;dashed=0;align=center;verticalAlign=middle;shape=mxgraph.arrows2.arrow;dy=0.63;dx=16;notch=0;fillColor=#dae8fc;strokeColor=#6c8ebf;" parent="1" vertex="1">
          <mxGeometry x="-35.31999999999999" y="238" width="60" height="20" as="geometry" />
        </mxCell>
        <mxCell id="WeLG5edQ8tTJFwp3-dpX-42" value="" style="shape=image;verticalLabelPosition=bottom;labelBackgroundColor=default;verticalAlign=top;aspect=fixed;imageAspect=0;image=https://cdn.icon-icons.com/icons2/2065/PNG/512/plugin_icon_124884.png;" parent="1" vertex="1">
          <mxGeometry x="415" y="223.37" width="40.50000000000001" height="40.50000000000001" as="geometry" />
        </mxCell>
        <mxCell id="WeLG5edQ8tTJFwp3-dpX-38" value="&lt;span style=&quot;color: rgb(0, 0, 0); font-family: Helvetica; font-size: 12px; font-style: normal; font-variant-ligatures: normal; font-variant-caps: normal; font-weight: 400; letter-spacing: normal; orphans: 2; text-align: center; text-indent: 0px; text-transform: none; widows: 2; word-spacing: 0px; -webkit-text-stroke-width: 0px; white-space: nowrap; background-color: rgb(255, 255, 255); text-decoration-thickness: initial; text-decoration-style: initial; text-decoration-color: initial; display: inline !important; float: none;&quot;&gt;Launching a Dialogue&lt;/span&gt;" style="text;whiteSpace=wrap;html=1;" parent="1" vertex="1">
          <mxGeometry x="377.78" y="270" width="150" height="40" as="geometry" />
        </mxCell>
        <mxCell id="WeLG5edQ8tTJFwp3-dpX-43" value="" style="shape=image;verticalLabelPosition=bottom;labelBackgroundColor=default;verticalAlign=top;aspect=fixed;imageAspect=0;image=https://st5.depositphotos.com/72897924/62266/v/450/depositphotos_622662226-stock-illustration-chat-icon-web-simple-illustration.jpg;" parent="1" vertex="1">
          <mxGeometry x="444.55679292929295" y="223.37" width="16.4480625" height="15.187500000000004" as="geometry" />
        </mxCell>
      </root>
    </mxGraphModel>
  </diagram>
</mxfile>
